<svg id="Calque_1" data-name="Calque 1" xmlns="http://www.w3.org/2000/svg" viewBox="0 0 277.08 183.61"><defs><style>.cls-1{fill:#1c7ba6;}.cls-2{fill:#1d1d1b;}.cls-3{fill:#72c6d0;}.cls-4{fill:#fff;}</style></defs><path class="cls-1" d="M192.34,319.92v-54.2h18.43a22.84,22.84,0,0,1,9.41,1.84,14.63,14.63,0,0,1,6.47,5.47,16.45,16.45,0,0,1,2.35,9.08,17.16,17.16,0,0,1-2.35,9.18,15.37,15.37,0,0,1-6.47,5.81,21.09,21.09,0,0,1-9.41,2H203v20.8ZM203,290.65h4.53a15.14,15.14,0,0,0,5.14-.84,8.27,8.27,0,0,0,3.8-2.66,8.59,8.59,0,0,0,0-9.52,8.16,8.16,0,0,0-3.8-2.6,15.92,15.92,0,0,0-5.14-.8H203Z" transform="translate(-129.08 -191.79)"/><path class="cls-1" d="M235.7,319.92v-56.5h10.11v56.5Z" transform="translate(-129.08 -191.79)"/><path class="cls-1" d="M270.05,321a15.9,15.9,0,0,1-8.42-2.32,16.68,16.68,0,0,1-6-6.37,20.32,20.32,0,0,1-.07-18.33,16.71,16.71,0,0,1,5.91-6.37,15.85,15.85,0,0,1,8.59-2.35,16.6,16.6,0,0,1,6.69,1.36,13.25,13.25,0,0,1,5.07,3.8v-4.11H291.9v33.64H281.81v-4.44a16.41,16.41,0,0,1-5.29,4.06A14.84,14.84,0,0,1,270.05,321Zm3-8.58a9,9,0,0,0,4.65-1.2,8.59,8.59,0,0,0,3.19-3.28,10.53,10.53,0,0,0,0-9.61,8.65,8.65,0,0,0-3.19-3.3,9.57,9.57,0,0,0-9.28,0,8.72,8.72,0,0,0-3.22,3.3,9.62,9.62,0,0,0-1.18,4.8,9.52,9.52,0,0,0,1.18,4.76,8.74,8.74,0,0,0,7.85,4.53Z" transform="translate(-129.08 -191.79)"/><path class="cls-1" d="M302.08,319.92V286.28h10.11V290a14.59,14.59,0,0,1,4.83-3.43,15.34,15.34,0,0,1,6.44-1.33,13.53,13.53,0,0,1,6.8,1.68,11.93,11.93,0,0,1,4.63,4.69,14.36,14.36,0,0,1,1.67,7v21.29H326.48V300.77a8,8,0,0,0-1.89-5.64,6.75,6.75,0,0,0-5.17-2,7.73,7.73,0,0,0-3.84.91,6.36,6.36,0,0,0-2.5,2.46,7,7,0,0,0-.89,3.53v19.91Z" transform="translate(-129.08 -191.79)"/><path class="cls-1" d="M362.28,321a20.09,20.09,0,0,1-9.79-2.37,18,18,0,0,1-6.83-6.39,17,17,0,0,1-2.49-9.11,17.32,17.32,0,0,1,5.38-12.7,18.6,18.6,0,0,1,5.95-3.81,19.53,19.53,0,0,1,7.32-1.36A18.83,18.83,0,0,1,371,287.4a15.53,15.53,0,0,1,6.18,6.06,18.08,18.08,0,0,1,2.25,9c0,.29,0,.54,0,.76s-.05.62-.12,1.22H353.51a8.42,8.42,0,0,0,1.17,4.45,7.81,7.81,0,0,0,3.27,3,10.55,10.55,0,0,0,4.89,1.07,10,10,0,0,0,4.63-1,13.21,13.21,0,0,0,3.91-3.27l7.26,3.68a16.66,16.66,0,0,1-6.7,6.34A20.32,20.32,0,0,1,362.28,321Zm-8.44-22.14h15.67a7.48,7.48,0,0,0-1.4-3.37,7,7,0,0,0-2.71-2.15,8.81,8.81,0,0,0-3.71-.75,9.42,9.42,0,0,0-3.88.75,6.59,6.59,0,0,0-4,5.52Z" transform="translate(-129.08 -191.79)"/><path class="cls-1" d="M398.18,321a9.81,9.81,0,0,1-7.8-3.19q-2.78-3.18-2.78-8.93V293.93h-4.53v-7.65h4.53V273.7h10v12.58H405v7.65h-7.39v14.16a4.72,4.72,0,0,0,.76,2.89,2.6,2.6,0,0,0,2.2,1,5.06,5.06,0,0,0,3-1.05l2.53,8.08a16.37,16.37,0,0,1-3.83,1.44A17.18,17.18,0,0,1,398.18,321Z" transform="translate(-129.08 -191.79)"/><path class="cls-2" d="M207.47,362.06a17.06,17.06,0,0,1-6.88-1.4,17.54,17.54,0,0,1-5.62-3.89A18.55,18.55,0,0,1,195,331a17.54,17.54,0,0,1,5.62-3.89,17.58,17.58,0,0,1,13.75,0A17.48,17.48,0,0,1,220,331a18.56,18.56,0,0,1,3.79,5.79,19.11,19.11,0,0,1,0,14.16,18.61,18.61,0,0,1-3.79,5.8,17.48,17.48,0,0,1-5.63,3.89A17,17,0,0,1,207.47,362.06Zm0-5.37a11.36,11.36,0,0,0,4.64-.95,11.19,11.19,0,0,0,3.71-2.69,12.55,12.55,0,0,0,2.46-4.07,15.16,15.16,0,0,0,0-10.18,12.51,12.51,0,0,0-2.46-4.06,11.19,11.19,0,0,0-3.71-2.69,11.36,11.36,0,0,0-4.64-.95,11,11,0,0,0-8.31,3.64,12.34,12.34,0,0,0-2.46,4.06,15.16,15.16,0,0,0,0,10.18,12.38,12.38,0,0,0,2.46,4.07,11,11,0,0,0,8.31,3.64Z" transform="translate(-129.08 -191.79)"/><path class="cls-2" d="M232.36,361.38V339.65h5.29v2.61a8.68,8.68,0,0,1,3-2.37,9.57,9.57,0,0,1,4.27-.92,8.77,8.77,0,0,1,4.4,1.06,7.38,7.38,0,0,1,2.92,3,9.78,9.78,0,0,1,1,4.62v13.69H248V348.8a6,6,0,0,0-1.34-4.19,4.79,4.79,0,0,0-3.73-1.48,5.59,5.59,0,0,0-2.83.67,4.72,4.72,0,0,0-1.82,1.78,4.93,4.93,0,0,0-.63,2.47v13.33Z" transform="translate(-129.08 -191.79)"/><path class="cls-2" d="M282.32,362.06a15.27,15.27,0,0,1-4.58-.64,15.86,15.86,0,0,1-3.62-1.58,16.66,16.66,0,0,1-2.61-1.9c-.7-.63-1.24-1.16-1.63-1.57l2.93-4.5q.6.61,1.5,1.47a15.63,15.63,0,0,0,2.11,1.65,12.91,12.91,0,0,0,2.73,1.37,9.37,9.37,0,0,0,3.32.56,7.72,7.72,0,0,0,3.08-.58,5,5,0,0,0,2.16-1.72,4.69,4.69,0,0,0,.81-2.81,4.8,4.8,0,0,0-.61-2.5,5.63,5.63,0,0,0-1.73-1.82A17,17,0,0,0,283.5,346c-1-.47-2.19-1-3.45-1.49a20.89,20.89,0,0,1-2.67-1.35,12.59,12.59,0,0,1-2.4-1.81,7.82,7.82,0,0,1-1.72-2.44,7.66,7.66,0,0,1-.64-3.23,9.31,9.31,0,0,1,.78-3.76,9.94,9.94,0,0,1,2.18-3.2,10.31,10.31,0,0,1,3.39-2.21,11.63,11.63,0,0,1,4.39-.8,13,13,0,0,1,3.83.57,15.62,15.62,0,0,1,3.4,1.49,12,12,0,0,1,2.53,1.93L290.7,334a11.12,11.12,0,0,0-1.93-1.56,10.62,10.62,0,0,0-2.47-1.18,9.16,9.16,0,0,0-2.83-.44,5.85,5.85,0,0,0-3,.68,4.81,4.81,0,0,0-1.86,1.77,4.61,4.61,0,0,0-.65,2.39,3.5,3.5,0,0,0,.46,1.85,4.16,4.16,0,0,0,1.25,1.33,10.78,10.78,0,0,0,1.86,1c.71.3,1.45.6,2.23.9,1.54.64,3,1.27,4.27,1.91a16.47,16.47,0,0,1,3.41,2.17,8.38,8.38,0,0,1,2.24,2.88,9.25,9.25,0,0,1,.79,4,9.84,9.84,0,0,1-1.56,5.62,10,10,0,0,1-4.3,3.55A15.42,15.42,0,0,1,282.32,362.06Z" transform="translate(-129.08 -191.79)"/><path class="cls-2" d="M308.45,362.06a5.7,5.7,0,0,1-4.57-1.91,8,8,0,0,1-1.63-5.37V343.66h-2.68v-4h2.68v-8.13h5.28v8.13h5v4h-5v10.76a3.62,3.62,0,0,0,.57,2.19,1.85,1.85,0,0,0,1.6.76,3.31,3.31,0,0,0,2.06-.72l1.31,4.24a8.77,8.77,0,0,1-2.18.85A9.4,9.4,0,0,1,308.45,362.06Z" transform="translate(-129.08 -191.79)"/><path class="cls-2" d="M328.61,362.06a10.29,10.29,0,0,1-5.47-1.5,10.71,10.71,0,0,1-3.88-4.1,12.15,12.15,0,0,1-1.43-6,12.33,12.33,0,0,1,1.38-5.88,10.66,10.66,0,0,1,3.84-4.12,10.31,10.31,0,0,1,5.56-1.52A10.42,10.42,0,0,1,333.3,340a8.47,8.47,0,0,1,3.39,3v-3.33H342v21.73h-5.29V357.9a10.13,10.13,0,0,1-3.52,3.07A9.65,9.65,0,0,1,328.61,362.06Zm1.5-4.52a6.69,6.69,0,0,0,3.49-.9,6.31,6.31,0,0,0,2.38-2.48,7.56,7.56,0,0,0,.86-3.64,7.44,7.44,0,0,0-.87-3.63,6.44,6.44,0,0,0-2.38-2.5,6.63,6.63,0,0,0-3.48-.9,6.73,6.73,0,0,0-3.48.9,6.41,6.41,0,0,0-2.4,2.5,8,8,0,0,0,0,7.24,6.42,6.42,0,0,0,2.39,2.51A6.72,6.72,0,0,0,330.11,357.54Z" transform="translate(-129.08 -191.79)"/><path class="cls-2" d="M360.74,373.05a14.81,14.81,0,0,1-7.23-1.61,9.62,9.62,0,0,1-4.3-4.71l4.33-2.08a6.88,6.88,0,0,0,2.89,2.81,9,9,0,0,0,4.31,1.05,7.84,7.84,0,0,0,3.67-.83,6.12,6.12,0,0,0,2.52-2.34,6.79,6.79,0,0,0,.92-3.58V357.9a9.94,9.94,0,0,1-3.54,3.07,9.83,9.83,0,0,1-4.61,1.09,10.27,10.27,0,0,1-5.41-1.47,10.78,10.78,0,0,1-3.89-4.09,13.16,13.16,0,0,1,0-11.91,10.69,10.69,0,0,1,3.86-4.11,10.44,10.44,0,0,1,5.6-1.51,10.11,10.11,0,0,1,4.61,1.06,9,9,0,0,1,3.41,3v-3.33h5.26V362a11.7,11.7,0,0,1-1.4,5.83,9.48,9.48,0,0,1-4.15,3.86A15.12,15.12,0,0,1,360.74,373.05Zm.46-15.51a6.85,6.85,0,0,0,3.52-.9,6.35,6.35,0,0,0,2.4-2.5,8,8,0,0,0,0-7.24,6.53,6.53,0,0,0-2.39-2.5,6.68,6.68,0,0,0-9.33,2.51,8,8,0,0,0,0,7.25,6.33,6.33,0,0,0,2.39,2.48A6.65,6.65,0,0,0,361.2,357.54Z" transform="translate(-129.08 -191.79)"/><path class="cls-2" d="M391.87,362.06a12.75,12.75,0,0,1-6.24-1.51,11.32,11.32,0,0,1-4.35-4.11,11.08,11.08,0,0,1-1.59-5.88,11.31,11.31,0,0,1,.9-4.53,11.56,11.56,0,0,1,2.53-3.69,11.8,11.8,0,0,1,8.39-3.37,12.22,12.22,0,0,1,5.95,1.4,10,10,0,0,1,4,3.92,11.45,11.45,0,0,1,1.44,5.8c0,.19,0,.34,0,.48a4.8,4.8,0,0,1-.07.6h-17.7a6.67,6.67,0,0,0,.89,3.46,6.16,6.16,0,0,0,2.5,2.35,7.77,7.77,0,0,0,3.68.84,7.56,7.56,0,0,0,3.51-.8,8.33,8.33,0,0,0,2.79-2.43l3.84,2a10.7,10.7,0,0,1-4.3,4.05A12.86,12.86,0,0,1,391.87,362.06Zm-6.56-14.2h12.33a5.87,5.87,0,0,0-1.12-2.57,5.81,5.81,0,0,0-2.14-1.68,6.68,6.68,0,0,0-2.89-.61,7.25,7.25,0,0,0-3,.59,5.3,5.3,0,0,0-2.14,1.67A5.86,5.86,0,0,0,385.31,347.86Z" transform="translate(-129.08 -191.79)"/><path class="cls-1" d="M217.9,215.14a26.43,26.43,0,0,1,1.12,3.72,11.75,11.75,0,0,1,.35,2.28,49.76,49.76,0,0,1,.13,6.46,30.75,30.75,0,0,1-2.07,9.29,34.79,34.79,0,0,1-2.16,4.78c-.67,1.14-1.45,2.21-2.19,3.29a28.59,28.59,0,0,1-6.47,6.7,46.91,46.91,0,0,1-5.07,3.31,19.28,19.28,0,0,1-2.79,1.24c-1.18.44-2.39.74-3.57,1.16a26.6,26.6,0,0,1-8.12,1.27,33.15,33.15,0,0,1-9.62-1.09c-1.37-.37-2.68-.92-4-1.4a24.9,24.9,0,0,1-5.66-3,40.12,40.12,0,0,1-4.29-3.27,30.89,30.89,0,0,1-5.25-6.26,36.38,36.38,0,0,1-2.38-4c-.18-.39-.37-.79-.51-1.19a30.63,30.63,0,0,1-1-2.94c-.08-.33-.22-.65-.33-1a24.34,24.34,0,0,1-1.31-7.12,36.86,36.86,0,0,1,.5-8.59,33.34,33.34,0,0,1,1.56-5.28,27.88,27.88,0,0,1,1.76-4.08,38.21,38.21,0,0,1,6-8,37.37,37.37,0,0,1,6.79-5.15,19.24,19.24,0,0,1,2.67-1.47,28.41,28.41,0,0,1,3.56-1.26c.41-.12.81-.26,1.21-.4a24.5,24.5,0,0,1,6.89-1.31,37,37,0,0,1,8.85.5,32.29,32.29,0,0,1,5.28,1.55c1.17.45,2.34.89,3.47,1.44a37.28,37.28,0,0,1,4.61,2.91,28.4,28.4,0,0,1,6.7,6.47,47.53,47.53,0,0,1,3.32,5.07,17.12,17.12,0,0,1,1.25,2.84A23.57,23.57,0,0,1,217.9,215.14Z" transform="translate(-129.08 -191.79)"/><path class="cls-1" d="M181.49,258s.06,0,.08,0l.46.07a39.85,39.85,0,0,0,7.08.12,19,19,0,0,0,3.43-.44c1.33-.32,2.64-.68,3.94-1.12a36.7,36.7,0,0,0,3.79-1.41A38.09,38.09,0,0,0,211.05,247a46.64,46.64,0,0,0,2.92-3.94,20.62,20.62,0,0,0,2-3.49c.42-.91.73-1.87,1.1-2.8A29.61,29.61,0,0,0,219.2,226a28.76,28.76,0,0,0-.72-8c-.07-.27-.16-.53-.26-.85a4.14,4.14,0,0,0-.11.95,3.89,3.89,0,0,1-.39,1.67,1,1,0,0,0-.11.55,18.3,18.3,0,0,1,0,3.14,2.47,2.47,0,0,1-.22,1.07.48.48,0,0,1-.43.33.45.45,0,0,1-.43-.3,4.09,4.09,0,0,1-.42-2.06.46.46,0,0,0-.21-.52,1.43,1.43,0,0,1-.67-1.21c0-.18-.06-.34-.31-.34l-.1.2c-.17.39-.37.53-.72.48a.8.8,0,0,1-.64-.66c0-.28-.13-.32-.4-.22a9,9,0,0,0-.88.43,9,9,0,0,1-1.88,1c.3.17.41.53.67.62.44.15.45.45.42.8s-.11.94-.1,1.4a3.63,3.63,0,0,1-.78,2.31c-.5.67-1.11,1.25-1.66,1.88a1.62,1.62,0,0,1-1.57.7h-.12c-.21,0-.26.13-.17.32a1.82,1.82,0,0,0,.89.82.42.42,0,0,0,.39-.05.88.88,0,0,1,.71-.11.61.61,0,0,0,.63-.26,2.63,2.63,0,0,0,.27-.41,3.56,3.56,0,0,1,.66-.88.66.66,0,0,1,.7-.11c.25.11.22.34.22.55,0,.48,0,1,.06,1.44a5.16,5.16,0,0,1-.73,2.89,3,3,0,0,0-.41,1.37,5.6,5.6,0,0,1-.52,2.12,1.68,1.68,0,0,0-.14.7,2.88,2.88,0,0,0,.44,1.33,2.89,2.89,0,0,1,.24,2.47,7.64,7.64,0,0,1-.79,1.53,1.81,1.81,0,0,0-.32,1.79,1.5,1.5,0,0,1-.2,1.51.78.78,0,0,0-.22.8.47.47,0,0,1,0,.28,7,7,0,0,1-.79,1.47,6.46,6.46,0,0,1-2.14,1.86,5.8,5.8,0,0,1-2.15.71,1.11,1.11,0,0,1-1-.35c-.05,0-.07-.13-.16-.15a1.22,1.22,0,0,1-.86-.67,1.6,1.6,0,0,0-.78-.65l-.45-.21a1,1,0,0,1-.62-1.46c0-.14,0-.25-.09-.32a.85.85,0,0,1-.44-1,.69.69,0,0,0-.54-.77l-.31-.09a.54.54,0,0,1-.38-.68c.07-.41-.06-.59-.5-.61-.26,0-.53,0-.8,0s-.55,0-.72-.23a1.52,1.52,0,0,1-.38-1,4,4,0,0,0,0-.49.58.58,0,0,0-.65-.54.77.77,0,0,0-.45.3.65.65,0,0,1-1.05,0c-.39-.34-.87-.23-1,.27-.06.24-.19.31-.36.31a2.41,2.41,0,0,0-1.82,1,12.48,12.48,0,0,1-1.93,1.77.67.67,0,0,1-.68.08,2.75,2.75,0,0,1-.52-.31,1.51,1.51,0,0,0-.7-.33c-.4,0-.8-.08-1.2-.1a4.1,4.1,0,0,1-2.82-1.22,2.32,2.32,0,0,0-.91-.58,1.11,1.11,0,0,1-.77-1.46.68.68,0,0,0,0-.4c-.11-.29-.19-.6-.33-.89a4.17,4.17,0,0,1-.54-1.45,3.79,3.79,0,0,1,.56-2.89c.14-.19.1-.32-.07-.47a.81.81,0,0,1-.06-1.24l.13-.15c.07-.09.09-.17,0-.26a1,1,0,0,1,0-1.32,1.53,1.53,0,0,0,.26-.9,2.08,2.08,0,0,1,0-.43,1.08,1.08,0,0,1,.94-1.05,3,3,0,0,0,.74-.32c.07,0,.16-.07.16-.18,0-.41.26-.6.57-.75a.94.94,0,0,0,.52-.5,1.94,1.94,0,0,1,.79-.86,8,8,0,0,1,1.56-.75,6.87,6.87,0,0,0,1.34-.58c.56-.33,1.15-.39,1.36.5a.45.45,0,0,0,0,.11.56.56,0,0,0,.62.44,2.72,2.72,0,0,0,1.09-.25,2.4,2.4,0,0,1,1.61,0,5.86,5.86,0,0,0,.9.21c.39.06.58-.14.51-.53a2.53,2.53,0,0,0-.26-.76.58.58,0,0,1,0-.61.91.91,0,0,1,1.12-.45.63.63,0,0,0,.65-.14,1.12,1.12,0,0,1,1.21-.3.83.83,0,0,0,.54,0,5.25,5.25,0,0,0,2.52-2.2,1.4,1.4,0,0,0,.13-.9.35.35,0,0,0-.23-.3c-.15,0-.23.07-.31.16a3.92,3.92,0,0,0-.25.32c-.3.35-.52.35-.81,0a.29.29,0,0,0-.49,0c-.18.18-.34.38-.52.57a1.58,1.58,0,0,1-1.12.59.58.58,0,0,1-.68-.57c0-.33-.1-.38-.43-.35a.6.6,0,0,1-.65-.84,2.5,2.5,0,0,1,.36-.66,1.45,1.45,0,0,0,.3-.56,1.42,1.42,0,0,1,.72-1,.75.75,0,0,0,.39-.68c.07-.78.49-1,1.2-.71a1.23,1.23,0,0,0,1.23-.08c.57-.39.67-.61.06-1.13a2.77,2.77,0,0,0-2-.71c-.53,0-.66.1-.85.59l-.06.16a.62.62,0,0,1-.56.4c-.26,0-.28-.24-.35-.43l0-.06c-.05-.1-.11-.21-.26-.15s-.25.12-.23.29a1.36,1.36,0,0,0,.07.25,1.72,1.72,0,0,1-.2,1.49l-.2.31.08.1c.5.7.8,1.94-.39,2.41a1,1,0,0,0-.62.5,3.22,3.22,0,0,0,.68.48.73.73,0,0,1,.42.7c0,.22-.23.29-.33.45a1.16,1.16,0,0,1,.2.18.42.42,0,0,1,0,.51.25.25,0,0,1-.35.1,1.47,1.47,0,0,0-.54-.16.86.86,0,0,1-.57-.3c-.16-.21-.3-.39-.6-.29-.09,0-.19-.07-.28-.14a1,1,0,0,1-.3-.58.73.73,0,0,0-.38-.58,2.55,2.55,0,0,0-1.08-.44,2.7,2.7,0,0,1-1.38-.43,6.54,6.54,0,0,0-.59-.3,1.34,1.34,0,0,0-.71-.12.34.34,0,0,0-.22.17c-.06.09,0,.14.08.19.3.27.6.54.91.79a1.44,1.44,0,0,0,1.14.31,5.31,5.31,0,0,1,1.49-.07.63.63,0,0,1,.43,1.07.65.65,0,0,1-.15.18.48.48,0,0,0-.13.66,3.86,3.86,0,0,1,.21.6.65.65,0,0,1-.33.82c-.22.1-.5-.06-.65-.43a6.85,6.85,0,0,1-.34-.8c-.11-.46-.45-.53-.79-.63a3,3,0,0,0-.79-.11,2.86,2.86,0,0,1-1.66-.58,1.41,1.41,0,0,0-.94-.32c-.59.06-.93.24-1,.73a1,1,0,0,1-1,1.12.2.2,0,0,0-.2.2,1.25,1.25,0,0,0,.21.9.65.65,0,0,1,0,1l-.13.15a.3.3,0,0,0,0,.52,1.27,1.27,0,0,1,.24.28.72.72,0,0,1,.08.77,5.86,5.86,0,0,1-1.94,2c-.14.08-.33,0-.44.12a1.45,1.45,0,0,1-1,.3,1.85,1.85,0,0,1-1.68-.75.78.78,0,0,1-.18-.6c0-.26,0-.53.08-.79a.74.74,0,0,0-.23-.68,1.16,1.16,0,0,1-.25-.35c-.25-.49.25-1.21.73-1.38a8.17,8.17,0,0,0,1.64-.63c.21-.14.35-.28.23-.56a1.57,1.57,0,0,1-.09-.48.36.36,0,0,0-.34-.36.79.79,0,0,1-.63-.45.17.17,0,0,0-.21-.11h-.31c-.64,0-.9-.46-.64-1.05a1,1,0,0,1,.32-.43l.56-.41a2.16,2.16,0,0,0,.93-1.13c.14-.42.23-.85.36-1.27a1.67,1.67,0,0,0,0-.94.77.77,0,0,1,.13-.88,1.71,1.71,0,0,0,.63-1.15.71.71,0,0,0-.19-.66,1.44,1.44,0,0,1-.34-.43.91.91,0,0,1,.23-1.05c.23-.15.58,0,.85.29a7.8,7.8,0,0,1,.5.77,1,1,0,0,0,1.28.28,1.8,1.8,0,0,0,.77-.75.61.61,0,0,1,.68-.36,1,1,0,0,0,.57-.09.57.57,0,0,0,.31-.86c-.13-.26-.16-.51.15-.69-.14-.1-.27-.17-.3-.33-.05-.34.13-.52.52-.5.23,0,.47,0,.58-.24s-.07-.35-.2-.47-.4-.07-.6,0a1.32,1.32,0,0,1-.44.13.43.43,0,0,1-.39-.71,3.3,3.3,0,0,1,.81-.77,8.9,8.9,0,0,0,.85-.63.63.63,0,0,0,.32-.5,1.68,1.68,0,0,0-1.1.13,2.47,2.47,0,0,0-.86.9.51.51,0,0,1-.78.09c-.3-.31-.65-.57-1-.87a.89.89,0,0,1-.27-1.09,2.29,2.29,0,0,0,.08-.28,1.67,1.67,0,0,0-.1-1.1.47.47,0,0,0-.47-.31c-.22,0-.27.19-.33.35a.84.84,0,0,0-.05.17c-.08.82-.15,1.64-.22,2.46a.37.37,0,0,0,.2.39.86.86,0,0,1,.5.69c0,.28.17.31.41.17s.67-.06.7.39a1.41,1.41,0,0,1-.22.85c-.11.2-.14.39.12.51a.84.84,0,0,1,.23,1.19,1.29,1.29,0,0,0-.29.92.65.65,0,0,1-.66.62,1,1,0,0,1-.83-.37,1.64,1.64,0,0,0-.7-.55.63.63,0,0,1-.42-.47c-.05-.27-.27-.31-.48-.32s-.25.19-.29.35-.12.56-.21.83a.78.78,0,0,1-1,.55.38.38,0,0,0-.34.07.43.43,0,0,1-.7-.35,2.46,2.46,0,0,1,0-.54.6.6,0,0,0-.2-.55l-.31-.26a1.22,1.22,0,0,1-.2-1.8,6.18,6.18,0,0,0,.67-.94,5.35,5.35,0,0,0,.36-3.52,1.68,1.68,0,0,1,.24-1.69,1.26,1.26,0,0,0,.36-1,1,1,0,0,1,.46-.88,6.07,6.07,0,0,1,1.43-.74.56.56,0,0,0,.41-.38,1,1,0,0,1,1.58-.6.6.6,0,0,0,.52.11,11.61,11.61,0,0,1,3.33,0,2,2,0,0,1,1,.33.6.6,0,0,1,.27.63.61.61,0,0,1-.43.52,2.23,2.23,0,0,0-.91.56,5.38,5.38,0,0,1,.82.45c.3.18.5.09.56-.26,0-.15,0-.32.13-.43a.32.32,0,0,0,.07-.36c-.12-.46,0-.68.48-.79,0,0,.05,0,.07-.06s0-.06,0-.07a7.08,7.08,0,0,0-.5-.59,1.38,1.38,0,0,1-.39-.72.72.72,0,0,1,.5-.91c.37-.08.66.13.79.58,0,.15.06.31.09.47.18,0,.25-.11.32-.22a2.11,2.11,0,0,0,.19-.55,3.21,3.21,0,0,1,.26-.85.76.76,0,0,1,.69-.48c.07,0,.17,0,.23-.07a1.28,1.28,0,0,1,1.49-.6c.11,0,.26,0,.3-.1s-.1-.21-.22-.24a2.27,2.27,0,0,1-.57-.2.52.52,0,0,1,.09-1,.89.89,0,0,1,.93.1,5.81,5.81,0,0,0,.85.54.93.93,0,0,0,.83.05.73.73,0,0,0-.27-.28,5.36,5.36,0,0,0-1.53-.72,1.93,1.93,0,0,1-1-.79.6.6,0,0,1,.12-.75.87.87,0,0,1,.82-.13,4.43,4.43,0,0,1,2.51,1.65,2.32,2.32,0,0,0,1.72.94.71.71,0,0,0-.27-.47,2.46,2.46,0,0,0-1-.51.76.76,0,0,1-.64-.79,1.62,1.62,0,0,1,0-.54.31.31,0,0,0-.16-.39.8.8,0,0,1-.44-.67c0-.54-.53-.75-.61-1.21,0-.08-.15-.07-.23-.09l-1.33-.29a31.33,31.33,0,0,0-7.49-.53,26.38,26.38,0,0,0-5.1.48,50.46,50.46,0,0,0-6.24,1.91,19,19,0,0,0-1.92.8,41.75,41.75,0,0,0-4.32,2.66,28.12,28.12,0,0,0-3.46,2.69l-.32.31a1.85,1.85,0,0,0,.71-.23,1.22,1.22,0,0,1,.77-.2c.26,0,.3.28.41.49.1-.13.17-.23.25-.32a.76.76,0,0,1,.81-.32.8.8,0,0,1,.55.73,1.65,1.65,0,0,1-.28,1.16c-.25.36-.5.73-.73,1.1a1.53,1.53,0,0,0-.28.83,3.58,3.58,0,0,1,.35.09,1,1,0,0,1,.56.87c0,.25-.23.35-.72.37h-.06c-.2,0-.3.14-.22.33a.84.84,0,0,1,.07.54.16.16,0,0,0,.15.2l.26,0a.47.47,0,0,1,.36.43c0,.23-.12.34-.32.42s-.25,0-.34.19c.11.17.36.26.35.52s-.25.34-.48.43l.26.26a.6.6,0,0,1,.12.62.55.55,0,0,1-.5.33,1.42,1.42,0,0,1-.46,0c-.12,0-.23,0-.3.1a.32.32,0,0,0,.32.49c.11,0,.2-.08.3-.11a.7.7,0,0,1,.93.49,1,1,0,0,1-.26.93.32.32,0,0,1-.49.1,2.92,2.92,0,0,0-.47-.23.21.21,0,0,0-.3.07c-.08.14,0,.23.1.32a.58.58,0,0,0,.57.08c.13,0,.28-.18.39,0s.19.37.05.58a.74.74,0,0,1-.2.23,1,1,0,0,0-.51,1,.7.7,0,0,1-.54.73l-.56.23a.69.69,0,0,0-.44.76,1.22,1.22,0,0,1-.19.77c-.18.35-.38.69-.58,1a.6.6,0,0,1-.3.29c-.44.19-.48.26-.43.74a2.31,2.31,0,0,1-.05,1.14,9.58,9.58,0,0,0-.32,3.1c0,.37-.12.62-.48.62a3.16,3.16,0,0,1-1.15-.05,2.75,2.75,0,0,1-1.46-1.37,6.47,6.47,0,0,1-.33-1.22c-.13-.58-.28-1.16-.42-1.74a1.31,1.31,0,0,1,.36-1.35l.38-.4a1.27,1.27,0,0,0-.55-.22,1.76,1.76,0,0,1-.55-.17.33.33,0,0,1,0-.62.6.6,0,0,1,.35-.1h.43a.17.17,0,0,0,.18-.16c0-.12-.08-.14-.17-.15a1.08,1.08,0,0,0-.4,0c-.59.09-.9-.21-.87-.8a1.35,1.35,0,0,1,0-.29,3.18,3.18,0,0,0,0-1.23.23.23,0,0,0-.3-.22c-.17,0-.34.05-.51.06-.35,0-.51-.15-.45-.5a2.32,2.32,0,0,1,.17-.55.36.36,0,0,0-.19-.53,4.35,4.35,0,0,0-.3.75c-.46,1.3-1,2.57-1.38,3.89a.46.46,0,0,0,0,.41c.11.18.22.36.34.53a.39.39,0,0,0,.45.18.57.57,0,0,1,.61.16,1.41,1.41,0,0,1,.43,1.2,1,1,0,0,0,.19.74c.23.32.49.64.71,1a1,1,0,0,1-.21,1.58c-.28.25-.29.33-.08.66.07.13.16.24.24.37a.41.41,0,0,1-.1.58,1.67,1.67,0,0,1-.24.16c-.22.12-.31.26-.11.47a.31.31,0,0,1-.05.48c-.11.09-.22.18-.32.28a.26.26,0,0,1-.41,0,1.25,1.25,0,0,0-1.32-.47h0c-.43,0-.6-.29-.4-.67.11-.21.19-.42,0-.61a.7.7,0,0,1-.13-.91,2,2,0,0,0,.09-1.51c-.51,0-.62.12-.68.58a36.25,36.25,0,0,0-.09,6.25,18.91,18.91,0,0,0,.16,2.25,1.17,1.17,0,0,1,1.42.81.18.18,0,0,0,.07.08,1.09,1.09,0,0,1,.61,1,.83.83,0,0,0,.27.66,1.11,1.11,0,0,0,.12-.85,2.49,2.49,0,0,0-.45-.87.83.83,0,0,1,0-1.08.42.42,0,0,0,0-.6,4,4,0,0,1-1-1.9,1.36,1.36,0,0,1,.21-1.26.75.75,0,0,1,1.29.06,3.21,3.21,0,0,1,.19.31c.52-.41,1-.34,1.22.16a1.74,1.74,0,0,1,.2.78c0,.63.13.72.73.57a.8.8,0,0,1,1.1.81c.73.4,1.11.9.79,1.71a.37.37,0,0,0,.17.48,1.1,1.1,0,0,1,.61,1.11.87.87,0,0,0,.32.71.46.46,0,0,1,.22.48,1.23,1.23,0,0,1-.67.82.78.78,0,0,1-.83-.27,1.68,1.68,0,0,1-.43-.81c-.1-.35-.16-.36-.47-.15s-.51.41-.76.62-.23.36,0,.54a.46.46,0,0,0,.44,0,.87.87,0,0,1,1,.32,3.13,3.13,0,0,0,.59.56,3.09,3.09,0,0,1,.38.35.46.46,0,0,1,0,.63,1,1,0,0,1-.61.4,1.11,1.11,0,0,1-.87-.23.93.93,0,0,0-.07.19c-.17,1.17-.26,2.35-.35,3.53a1,1,0,0,0,.46,1,1.15,1.15,0,0,1,.59,1.06,1.93,1.93,0,0,0,.28,1.13,5,5,0,0,1,.25.52,1,1,0,0,0,.56.55,1.14,1.14,0,0,1,.57.51c.09.14.15.31.24.45a5.11,5.11,0,0,0,1.47,1.53l1,.71c.12.08.24.18.21.35a.43.43,0,0,1-.33.29,2.33,2.33,0,0,1-1.36,0l-1.07-.27a26.49,26.49,0,0,0,2.44,2.42c.2-.86.78-1.17,1.55-.82a1,1,0,0,0,.89,0,1.14,1.14,0,0,1,1.52.17,8,8,0,0,0,.69.62,1.85,1.85,0,0,0,1.12.47,7.07,7.07,0,0,1,1.6.18,3.29,3.29,0,0,1,2.33,1.52l.08,0c.46-.47.91-.37,1.41,0a.85.85,0,0,0,1.1,0,.94.94,0,0,1,1.19-.05,4,4,0,0,0,1.6.54,4.21,4.21,0,0,1,1,.24.85.85,0,0,1,.6.76,4.7,4.7,0,0,1,0,.75.94.94,0,0,0,.46,1,6.49,6.49,0,0,1,.7.46.65.65,0,0,1-.24,1.18c-.1,0-.21,0-.29.13C181.45,257.4,181.76,257.64,181.49,258Z" transform="translate(-129.08 -191.79)"/><path class="cls-1" d="M187.16,197.11c-.06-.2-.07-.42-.37-.47s-.26-.31-.13-.54a.27.27,0,0,0,0-.33,1,1,0,0,1,.58-1.64c.24-.08.44-.15.53-.44s.39-.29.63-.26.32.23.33.45a1.35,1.35,0,0,1-.1.56l-.18.49c-.27.8-.16,1,.61,1.4.38.18.78.35,1.15.54a1.07,1.07,0,0,1,.63.87.79.79,0,0,1-.27.66,1.18,1.18,0,0,1-1.63.22.37.37,0,0,0-.46-.05.52.52,0,0,1-.67-.24A3.86,3.86,0,0,1,187.16,197.11Z" transform="translate(-129.08 -191.79)"/><path class="cls-3" d="M187.41,194.3c-.25.09-.5.12-.65.34a.86.86,0,0,0,.07,1.05c.12.16.22.3,0,.5s-.06.27.12.29a.39.39,0,0,1,.33.31c.06.18.14.36.21.54a3.57,3.57,0,0,0,.48.85c.1.13.23.26.41.14a.5.5,0,0,1,.64.05,1.17,1.17,0,0,0,.58.22,1.12,1.12,0,0,0,1-.62.89.89,0,0,0-.47-.83c-.11-.07-.24-.13-.36-.19-.41-.2-.83-.39-1.24-.61a.93.93,0,0,1-.49-1.19,4,4,0,0,1,.31-.78,1,1,0,0,0,.1-.47c0-.22-.2-.23-.35-.27s-.19.06-.2.15A.5.5,0,0,1,187.41,194.3Z" transform="translate(-129.08 -191.79)"/><path class="cls-3" d="M193.48,224c.14-.2,0-.28-.1-.38s-.22-.27,0-.46.28-.48-.1-.7a3,3,0,0,1-.58-.38c-.25-.21-.26-.36,0-.6a2.66,2.66,0,0,1,.66-.45,1.25,1.25,0,0,0,.25-2c-.21-.19-.21-.32,0-.51a1.26,1.26,0,0,0,.28-1.37,2.42,2.42,0,0,1-.1-.36.52.52,0,0,1,.47-.59c.24-.06.39,0,.51.34.05.1,0,.28.2.28s.23-.17.28-.3a1.14,1.14,0,0,0,.06-.25.45.45,0,0,1,.31-.38,2.37,2.37,0,0,1,1.44-.14,2.66,2.66,0,0,1,1.84,1.16.53.53,0,0,1,0,.69,1.58,1.58,0,0,1-1.84.5c-.57-.25-.75-.15-.86.46a1.81,1.81,0,0,0,0,.23.52.52,0,0,1-.31.5,1.41,1.41,0,0,0-.77,1,1.83,1.83,0,0,1-.32.62,2.44,2.44,0,0,0-.36.65.35.35,0,0,0,.37.49c.53,0,.64.05.78.55a.37.37,0,0,0,.42.3,1.36,1.36,0,0,0,.94-.51c.2-.18.37-.39.57-.57a.52.52,0,0,1,.73,0c.2.21.34.16.49,0l.18-.19c.18-.16.37-.34.64-.23a.77.77,0,0,1,.47.61,1.77,1.77,0,0,1-.44,1.44,6.41,6.41,0,0,1-2,1.6,1.63,1.63,0,0,1-1.37.25.7.7,0,0,0-.75.25.92.92,0,0,1-.95.26l-.14,0a.61.61,0,0,0-.62.23c-.15.16-.05.34,0,.51a2.45,2.45,0,0,1,.29.89.68.68,0,0,1-.91.77c-.24-.07-.49-.12-.72-.21a2.65,2.65,0,0,0-2.2.11c-.7.33-1.36.23-1.61-.69a.78.78,0,0,1-.05-.14c-.06-.25-.23-.31-.46-.23a2,2,0,0,0-.48.19,1.75,1.75,0,0,1-.69.29,5.44,5.44,0,0,0-1.56.58,2,2,0,0,0-1.06.89,1.5,1.5,0,0,1-.83.86.47.47,0,0,0-.34.54.28.28,0,0,1-.15.29,2.29,2.29,0,0,1-.85.4c-.62.1-.83.3-.85.93a2.56,2.56,0,0,1-.43,1.52.57.57,0,0,0,0,.66c.27.47.27.47-.07.9a.54.54,0,0,0,0,.8c.39.43.38.5.09,1a3.75,3.75,0,0,0-.19,3.31c.15.42.36.83.54,1.24a1.41,1.41,0,0,1,.09,1,.68.68,0,0,0,.41.84,3.16,3.16,0,0,1,1,.7,4.15,4.15,0,0,0,3,1.29,3.14,3.14,0,0,1,2.1.57l.13.07a.53.53,0,0,0,.59,0,12.57,12.57,0,0,0,1.23-1.07,7,7,0,0,0,.8-.74,2.7,2.7,0,0,1,1.63-.85.36.36,0,0,0,.34-.25c.21-.48.79-.77,1.15-.52a.84.84,0,0,0,1.19-.09l.05,0a.86.86,0,0,1,1.16.54,4.68,4.68,0,0,1,.07.54,1.05,1.05,0,0,0,1.19,1.12,1.7,1.7,0,0,1,.74.06q.56.19.51.63c-.05.46,0,.47.4.61a1.1,1.1,0,0,1,.84,1.21.52.52,0,0,0,.24.52.57.57,0,0,1,.24.79.69.69,0,0,0,.31.9,2.22,2.22,0,0,0,.43.23,2.79,2.79,0,0,1,1.19.93.93.93,0,0,0,.72.48.33.33,0,0,1,.2.15.81.81,0,0,0,.91.33,5.91,5.91,0,0,0,2.81-1.3,6.37,6.37,0,0,0,1.73-2c.13-.25.32-.54.15-.83a.5.5,0,0,1,.1-.69,1.15,1.15,0,0,0,.28-1.25,4.56,4.56,0,0,0-.18-.52,1,1,0,0,1,0-1c.2-.31.44-.58.66-.87a2.92,2.92,0,0,0,.74-2.16,3.92,3.92,0,0,0-.48-1.38,2.41,2.41,0,0,1-.1-2.52,3,3,0,0,0,.38-1.24,5.88,5.88,0,0,1,.77-2.51,4.54,4.54,0,0,0,.45-2.3c0-.45-.05-.9-.07-1.35s-.16-.43-.47-.25a1,1,0,0,0-.3.31c-.17.25-.32.52-.5.77a1,1,0,0,1-1,.54,1.08,1.08,0,0,0-.56.07.81.81,0,0,1-.74.07,2,2,0,0,1-.89-.8c-.26-.51-.06-.88.5-.81a1.35,1.35,0,0,0,1.23-.53c.4-.47.78-1,1.22-1.39a5.25,5.25,0,0,0,1.4-4.18c0-.23,0-.44-.32-.5-.11,0-.17-.14-.24-.23a2.59,2.59,0,0,0-.31-.35c-.47-.41-.74-.35-1,.21a.2.2,0,0,1,0,.08.87.87,0,0,1-1.48.19.46.46,0,0,0-.45-.19,1.3,1.3,0,0,1-1.27-.64.69.69,0,0,1,.51-1.13,2.51,2.51,0,0,1,1.73.41,3.55,3.55,0,0,0,2.14.42.65.65,0,0,0,.29-.11c.61-.39,1.21-.79,1.83-1.16a.84.84,0,0,1,.86-.16c.17.08.32.17.31.4a.32.32,0,0,0,0,.16.48.48,0,0,0,.44.39c.26,0,.36-.14.45-.33s.09-.33.32-.32a.57.57,0,0,1,.47.29.42.42,0,0,1,.06.19,1.7,1.7,0,0,0,.61,1.14.63.63,0,0,1,.24.59,3.34,3.34,0,0,0,.1,1.09,3,3,0,0,0,.29,1c.14.25.32.25.47,0a1.4,1.4,0,0,0,.18-.72c0-1,0-2-.05-2.94a2.55,2.55,0,0,1,0-1,13.25,13.25,0,0,0,.53-2.06,3.32,3.32,0,0,0-.1-2.24,5.06,5.06,0,0,1-.21-.66,36.25,36.25,0,0,0-1.42-3.81,31.65,31.65,0,0,0-2.39-4.05,32.35,32.35,0,0,0-5.83-6.74c-1.24-1.08-2.62-2-4-2.92a20.93,20.93,0,0,0-2.83-1.72,52.4,52.4,0,0,0-5.08-2,11.32,11.32,0,0,0-1.89-.54.25.25,0,0,0,.1.21,1.26,1.26,0,0,1,.42.76,1,1,0,0,0,.47.67.42.42,0,0,1,.21.46,2,2,0,0,0,0,.69c0,.27.13.5.47.56a2.27,2.27,0,0,1,1.08.57,1,1,0,0,1,.34.56c0,.25-.09.36-.33.29a2.17,2.17,0,0,0-.42-.11,1.51,1.51,0,0,1-1-.57,12.23,12.23,0,0,0-1.08-1.08,3.92,3.92,0,0,0-1.85-.82c-.16,0-.37-.09-.47.1a.43.43,0,0,0,.13.52l.38.32a4.25,4.25,0,0,0,.91.44,4.68,4.68,0,0,1,1.14.67c.14.11.33.22.25.44s-.28.2-.47.2a1.77,1.77,0,0,1-1.14-.41l-.44-.32a.63.63,0,0,0-.58-.05c-.14.06-.27.13-.28.3a.32.32,0,0,0,.25.31l.49.19a.44.44,0,0,1,.3.52.42.42,0,0,1-.5.3l-.26,0a1,1,0,0,0-.9.26c-.13.12-.17.29-.28.41a.57.57,0,0,0-.82.3,4.08,4.08,0,0,0-.28.9,1.51,1.51,0,0,1-.33.7.37.37,0,0,1-.39.12c-.17,0-.18-.19-.18-.32a.83.83,0,0,0-.24-.58.42.42,0,0,0-.72.2.92.92,0,0,0,.11.72,5.63,5.63,0,0,0,.7.76.35.35,0,0,1,.12.39.34.34,0,0,1-.33.2c-.23,0-.25.13-.23.29a2.12,2.12,0,0,0,.1.36c0,.09.06.2,0,.24-.26.14-.28.4-.38.63a.47.47,0,0,1-.63.28c-.13-.06-.26-.14-.38-.21s-.53-.37-.88-.2a.12.12,0,0,1-.15-.06c0-.06,0-.11.06-.15a6.3,6.3,0,0,1,1.22-.74c.24-.08.42-.19.41-.47s-.21-.37-.41-.46a3,3,0,0,0-.9-.2,10.89,10.89,0,0,0-3.07,0,1,1,0,0,1-.84-.19.56.56,0,0,0-.89.15,1.05,1.05,0,0,0-.23.46.49.49,0,0,1-.38.39,7.89,7.89,0,0,0-1,.48,1.17,1.17,0,0,0-.84,1.23.8.8,0,0,1-.3.63,1.31,1.31,0,0,0-.35,1.48,5.54,5.54,0,0,1,.19.9,4.63,4.63,0,0,1-1.13,3.83,1,1,0,0,0,.16,1.63l.17.14a.85.85,0,0,1,.33.85,1.77,1.77,0,0,0,0,.4c0,.25.12.31.34.17a.51.51,0,0,1,.38-.07c.52.07.74-.08.87-.59.07-.24.11-.49.18-.73a.47.47,0,0,1,.49-.37.76.76,0,0,1,.73.47.38.38,0,0,0,.24.24,1.57,1.57,0,0,1,.47.34l.44.44a.7.7,0,0,0,.72.19c.27-.09.3-.34.29-.6a.91.91,0,0,1,.22-.66c.34-.41.26-.76-.2-1a.45.45,0,0,1-.23-.63,2.49,2.49,0,0,1,.16-.33.83.83,0,0,0,.12-.53c0-.18-.1-.25-.29-.16-.51.22-.64.15-.81-.39-.05-.17-.08-.35-.26-.43a.74.74,0,0,1-.43-.83c0-.67.11-1.34.17-2a1.92,1.92,0,0,1,.19-.66.57.57,0,0,1,1-.15,1,1,0,0,1,.24.39,1.9,1.9,0,0,1,0,1.33.71.71,0,0,0,.21.88c.27.24.55.47.82.72s.37.1.52,0a.83.83,0,0,0,.19-.26,1.71,1.71,0,0,1,1.11-.75,1.57,1.57,0,0,1,.86,0c.22.07.29.21.17.42a2.19,2.19,0,0,1-.69.73,7.61,7.61,0,0,0-1.16.89c-.1.11-.25.23-.17.4s.27.15.43.15a2.75,2.75,0,0,0,.57-.12.62.62,0,0,1,.74.44c.1.26,0,.37-.3.59a1.37,1.37,0,0,1-.71.12.39.39,0,0,0,.17.53,1.11,1.11,0,0,1,.37.43c0,.07.09.16,0,.24a.21.21,0,0,1-.27,0,2.25,2.25,0,0,1-.26-.27c0,.16.06.25.1.35a.77.77,0,0,1-.36,1,1.12,1.12,0,0,1-.8.16.43.43,0,0,0-.54.26,2,2,0,0,1-.81.84,1.12,1.12,0,0,1-1.57-.4,4,4,0,0,0-.56-.81.42.42,0,0,0-.46-.15.41.41,0,0,0-.21.39.8.8,0,0,0,.26.65.88.88,0,0,1,.35.64,1.65,1.65,0,0,1-.6,1.45.59.59,0,0,0-.24.71,1.51,1.51,0,0,1,.07.73c-.09.44-.18.87-.28,1.3a2.38,2.38,0,0,1-1.15,1.64c-.19.12-.37.26-.54.39a.84.84,0,0,0-.3.55c0,.3.07.45.38.48l.46,0a.3.3,0,0,1,.33.21.51.51,0,0,0,.42.35.7.7,0,0,1,.62.66c0,.14.05.28.09.42a.55.55,0,0,1-.22.61,2.4,2.4,0,0,1-.51.31c-.43.22-.9.29-1.34.47s-.9.74-.48,1.24a1.4,1.4,0,0,1,.4,1.14,2.59,2.59,0,0,1,0,.48.82.82,0,0,0,.11.67,2.19,2.19,0,0,0,2.13.52c.27-.15.56-.25.83-.37a.8.8,0,0,0,.22-.13,10.16,10.16,0,0,0,1.42-1.51.67.67,0,0,0-.06-.93c-.42-.47-.43-.47,0-1l.07-.09a.45.45,0,0,0,0-.61,1.31,1.31,0,0,1-.29-1c0-.26.09-.43.36-.47a.82.82,0,0,0,.82-.92.92.92,0,0,1,.7-.85,1.64,1.64,0,0,1,1.61.27,3,3,0,0,0,1.57.58,4.08,4.08,0,0,1,1.24.25.56.56,0,0,1,.34.39c.11.37.35.69.48,1.06,0,.13.19.31.38.22a.39.39,0,0,0,.23-.5,3.85,3.85,0,0,0-.28-.66c-.2-.47-.18-.6.22-.91.18-.15.32-.32.24-.57s-.3-.28-.51-.3a5.06,5.06,0,0,0-1.29.07,1.54,1.54,0,0,1-1.23-.29c-.38-.29-.73-.62-1.08-.94-.19-.18-.14-.39.1-.51a.92.92,0,0,1,.59-.07,3.38,3.38,0,0,1,1.06.43,3.58,3.58,0,0,0,1.28.38c.74.11,1.46.33,1.63,1.25.06.33.25.42.62.41.13,0,.29,0,.34.15.09.31.35.4.61.47A1.85,1.85,0,0,1,193.48,224Z" transform="translate(-129.08 -191.79)"/><path class="cls-1" d="M175.83,217.05c.52,0,.63,0,.77.52.07.24.2.35.44.3a.68.68,0,0,1,.74.38,1.12,1.12,0,0,0,.8.56,1,1,0,0,1,.91.84A1.18,1.18,0,0,1,179,221l-.21.14a1,1,0,0,0-.66.91.62.62,0,0,1-.57.6.69.69,0,0,1-.67-.91c0-.1.07-.2.1-.3-.41-.28-.4-.58,0-.87.26-.17.26-.34,0-.47a.45.45,0,0,1-.29-.39.46.46,0,0,0-.4-.43,5.11,5.11,0,0,1-1.07-.4.66.66,0,0,1-.46-.74,3.6,3.6,0,0,0,0-.65.92.92,0,0,1,.42-.84c.34-.22.55-.15.67.24C175.79,216.92,175.81,217,175.83,217.05Z" transform="translate(-129.08 -191.79)"/><path class="cls-3" d="M179.25,219.64a.83.83,0,0,0-.7-.52,1.14,1.14,0,0,1-1-.78.34.34,0,0,0-.4-.25c-.61.08-.63.06-.83-.55a.33.33,0,0,0-.41-.26c-.32.05-.42-.05-.4-.4,0-.06.05-.14,0-.18a.19.19,0,0,0-.21,0,.84.84,0,0,0-.35.93,1.17,1.17,0,0,1,0,.49c-.07.3.09.43.32.56a5.9,5.9,0,0,0,1,.32c.33.1.59.26.59.65a.18.18,0,0,0,.1.16c.55.39.56.54.07,1a.27.27,0,0,0-.13.24c0,.11.11.12.2.14s.24.16.13.33a.75.75,0,0,0-.12.47c0,.17.08.32.26.36a.36.36,0,0,0,.42-.18.87.87,0,0,0,.15-.46.63.63,0,0,1,.35-.55l.36-.19A1,1,0,0,0,179.25,219.64Z" transform="translate(-129.08 -191.79)"/><path class="cls-1" d="M174.8,196.59c.41-.3.62-.34.82-.17a.89.89,0,0,1,.15,1,1.34,1.34,0,0,1-.58.62.4.4,0,0,0-.24.52c.13.41.26.82.4,1.24,0,.12.08.23.11.35s.07.45-.15.58-.37-.06-.52-.19l-.31-.3c-.32.39-.69.67-1.21.46a.51.51,0,0,1-.27-.63c-.63-.05-1-.38-1-.89s.31-.74.87-.74a.89.89,0,0,1,.4-.69c.27-.16.52.05.77,0a.52.52,0,0,0-.17-.42c-.22-.31-.22-.53,0-.73S174.53,196.29,174.8,196.59Z" transform="translate(-129.08 -191.79)"/><path class="cls-3" d="M174.83,196.94c-.16,0-.17-.12-.23-.19a.2.2,0,0,0-.22-.08c-.32.11-.4.34-.22.61a1.19,1.19,0,0,1,.09.15.42.42,0,0,1,0,.51.39.39,0,0,1-.48.07c-.38-.13-.6,0-.66.37s-.12.29-.34.28a.5.5,0,0,0-.55.58.58.58,0,0,0,.69.55c.24,0,.4,0,.33.31s.18.41.43.37a.87.87,0,0,0,.52-.34c.15-.19.29-.2.47,0a1.4,1.4,0,0,0,.55.47.6.6,0,0,0,0-.61,8.45,8.45,0,0,1-.43-1.19.68.68,0,0,1,.35-.92,1,1,0,0,0,.47-1.13c-.1-.24-.22-.28-.45-.16S174.93,196.82,174.83,196.94Z" transform="translate(-129.08 -191.79)"/><path class="cls-1" d="M166.65,215.64a1,1,0,0,1-.92-.34c-.16-.17-.16-.31,0-.45a7.34,7.34,0,0,1,.86-.39.49.49,0,0,0,.3-.28.86.86,0,0,1,1-.61.29.29,0,0,0,.34-.21,1.24,1.24,0,0,1,1.1-.62,1.09,1.09,0,0,1,.93,1,1.91,1.91,0,0,1-.91,1.76,3.85,3.85,0,0,1-1.54.73l-.2,0A.81.81,0,0,1,166.65,215.64Z" transform="translate(-129.08 -191.79)"/><path class="cls-3" d="M165.88,215.09c.28.29.29.3.73.3.23,0,.4,0,.39.33s.1.21.22.26a1.13,1.13,0,0,0,.68,0,3.94,3.94,0,0,0,1.42-.74,1.49,1.49,0,0,0,.7-1.51.83.83,0,0,0-.71-.68,1.08,1.08,0,0,0-.91.44.41.41,0,0,1-.47.32.62.62,0,0,0-.7.39.93.93,0,0,1-.63.55A2.1,2.1,0,0,0,165.88,215.09Z" transform="translate(-129.08 -191.79)"/><path class="cls-1" d="M213.12,239.05a2.15,2.15,0,0,1,0,1.28,2.9,2.9,0,0,0-.06.88,5.35,5.35,0,0,1-.69,2.65,1.16,1.16,0,0,1-.43.45.44.44,0,0,1-.72-.28,2.15,2.15,0,0,1,0-.91c.06-.48.14-1,.22-1.43a1.47,1.47,0,0,0-.08-.9,1,1,0,0,1,.31-1.24,3.69,3.69,0,0,0,.62-.75c.13-.17.24-.31.49-.28s.18.24.26.37A1,1,0,0,1,213.12,239.05Z" transform="translate(-129.08 -191.79)"/><path class="cls-3" d="M212.75,238.66a1.3,1.3,0,0,0-.4.42,2.53,2.53,0,0,1-.48.6.67.67,0,0,0-.23.83,2.66,2.66,0,0,1,.06,1.58,9.71,9.71,0,0,0-.17,1.08,4.65,4.65,0,0,0,0,.74c0,.27.2.34.42.2a1.1,1.1,0,0,0,.45-.55,4.61,4.61,0,0,0,.48-2.06A4.62,4.62,0,0,1,213,240,2.2,2.2,0,0,0,212.75,238.66Z" transform="translate(-129.08 -191.79)"/><path class="cls-1" d="M176.5,220.16a1.37,1.37,0,0,1-.12,1.24c-.1.13-.07.35-.11.53a1.15,1.15,0,0,1-.86.84.68.68,0,0,1-.82-.7,1.41,1.41,0,0,1,0-.46c0-.18,0-.32-.15-.42s-.16-.25-.13-.41a1.18,1.18,0,0,0-.1-.69.78.78,0,0,1,.67-1.05.35.35,0,0,1,.25.14.67.67,0,0,0,.43.2C176.12,219.43,176.34,219.62,176.5,220.16Z" transform="translate(-129.08 -191.79)"/><path class="cls-3" d="M175,219.29l-.16.09c-.42.19-.45.24-.28.67a1.3,1.3,0,0,1,.11.61.48.48,0,0,0,.15.49.45.45,0,0,1,.1.41,2.94,2.94,0,0,0-.05.51.43.43,0,0,0,.63.42.93.93,0,0,0,.64-.78.87.87,0,0,1,.1-.42,1.35,1.35,0,0,0,.11-1.26.57.57,0,0,0-.64-.44A.73.73,0,0,1,175,219.29Z" transform="translate(-129.08 -191.79)"/><path class="cls-1" d="M187.08,225s0,.12,0,.2c0,.26,0,.47-.31.54a.62.62,0,0,1-.68-.35.35.35,0,0,0-.28-.27.34.34,0,0,1-.25-.4.59.59,0,0,1,.52-.46A1,1,0,0,1,187.08,225Z" transform="translate(-129.08 -191.79)"/><path class="cls-3" d="M186.11,224.5c-.3.1-.41.29-.23.38a1.1,1.1,0,0,1,.46.47c.13.22.49.24.55.06a.63.63,0,0,0-.16-.66A.66.66,0,0,0,186.11,224.5Z" transform="translate(-129.08 -191.79)"/><path class="cls-1" d="M189.55,225.36c0,.13.1.27,0,.38s-.22,0-.32,0a.42.42,0,0,0-.31,0,.4.4,0,0,1-.46-.54.65.65,0,0,1,.42-.45.5.5,0,0,1,.46.24A.92.92,0,0,1,189.55,225.36Z" transform="translate(-129.08 -191.79)"/><path class="cls-3" d="M189.41,225.56A.65.65,0,0,0,189,225c-.06.06-.09.13-.14.16s-.21.05-.15.19a.23.23,0,0,0,.26.15A1.44,1.44,0,0,1,189.41,225.56Z" transform="translate(-129.08 -191.79)"/><path class="cls-1" d="M185.79,224.23a.55.55,0,0,1-.69-.31.5.5,0,0,1,.33-.61.51.51,0,0,1,.63.39A.36.36,0,0,1,185.79,224.23Z" transform="translate(-129.08 -191.79)"/><path class="cls-3" d="M185.73,224.07c.19-.07.26-.18.22-.32a.37.37,0,0,0-.45-.25c-.15.06-.29.13-.2.34A.34.34,0,0,0,185.73,224.07Z" transform="translate(-129.08 -191.79)"/><path class="cls-1" d="M200.57,214a2.41,2.41,0,0,1,.12-1.7,1.16,1.16,0,0,1,.84-.72.75.75,0,0,1,.82.39,1.38,1.38,0,0,1,.12,1.09c-.1.28,0,.28.26.36s.64,0,.92.12a.86.86,0,0,1,.57.82.93.93,0,0,0,.24.68.54.54,0,0,0,.3.17,1.35,1.35,0,0,1,.68,2.32l0,0c-.6.61-.78.59-1.42,0A5.26,5.26,0,0,1,202.7,216a1.79,1.79,0,0,0-.76-.65,4.83,4.83,0,0,1-.88-.59A1.55,1.55,0,0,1,200.57,214Z" transform="translate(-129.08 -191.79)"/><path class="cls-1" d="M204.65,215.36a.48.48,0,0,1-.32-.18,1,1,0,0,1-.25-.68c0-.55-.3-.8-.82-.66a1.63,1.63,0,0,1-1-.42.43.43,0,0,1,0-.33,2.09,2.09,0,0,0,.08-.34.82.82,0,0,0-.47-.92.86.86,0,0,0-.93.57.36.36,0,0,0,0,.11,2.42,2.42,0,0,0,0,1.53,1.31,1.31,0,0,0,.47.61,6.41,6.41,0,0,0,.86.57,2,2,0,0,1,.75.7,5.1,5.1,0,0,0,1.22,1.51c.47.42.53.45,1,0l0-.05a1.29,1.29,0,0,0,.37-1.32A1,1,0,0,0,204.65,215.36Z" transform="translate(-129.08 -191.79)"/><path class="cls-3" d="M157.71,216.43a1.88,1.88,0,0,0,.72.25c.62.17.69.38.26.84l-.11.13a1.17,1.17,0,0,0-.33,1.16c.19.77.39,1.53.55,2.3a2.54,2.54,0,0,0,1.24,1.66.78.78,0,0,0,.65.17.61.61,0,0,1,.42,0c.26.1.4,0,.39-.29,0-.72.12-1.43.09-2.15a.74.74,0,0,1,0-.25,3.63,3.63,0,0,0,.27-2,.66.66,0,0,1,.45-.76.42.42,0,0,0,.27-.2c.19-.45.48-.83.69-1.27a.53.53,0,0,0,.05-.41.77.77,0,0,1,.2-.77,2.57,2.57,0,0,1,1.05-.57c.18-.08.31-.18.3-.37a1.26,1.26,0,0,1,.65-1.17.28.28,0,0,0,.1-.44l-.39.12a.7.7,0,0,1-.69-.37.47.47,0,0,1,.08-.54c.2-.22.44-.14.67,0l.48.23.14-.17a.63.63,0,0,0,0-.78c-.19-.22-.41-.16-.63-.06l-.11.05a.54.54,0,0,1-.67-.18.62.62,0,0,1-.08-.73.54.54,0,0,1,.62-.25l.17,0c.16,0,.36,0,.43-.15s-.06-.32-.22-.42l-.11-.08a.32.32,0,0,1,.12-.57c.1,0,.23,0,.29-.16-.48-.55-.46-.67.19-1,.08,0,.18-.07.17-.18s-.14-.14-.25-.15c-.46-.05-.55-.15-.5-.6a.86.86,0,0,0,0-.28.54.54,0,0,1,.5-.81c.14,0,.29,0,.4-.09-.07-.44-.13-.52-.54-.59a.36.36,0,0,1-.32-.46,2.46,2.46,0,0,1,.39-1c.21-.34.43-.67.64-1a1.52,1.52,0,0,0,.23-1,.46.46,0,0,0-.3-.42.41.41,0,0,0-.46.16c-.12.12-.22.27-.35.38s-.34.1-.43-.11c-.15-.36-.19-.38-.55-.25a2.07,2.07,0,0,0-.34.15,1.41,1.41,0,0,1-.71.2.52.52,0,0,0-.46.17,30,30,0,0,0-4.1,4.9,39.85,39.85,0,0,0-2.21,3.42c-.29.54-.55,1.1-.79,1.65.48.48.48.48.32,1.11,0,.15-.11.29,0,.46h.29c.63-.07.75,0,.85.66a5.3,5.3,0,0,1,0,1.32c0,.42.11.54.52.51a1.2,1.2,0,0,1,.65,0,.41.41,0,0,1,.1.71.68.68,0,0,1-.44.12A.73.73,0,0,0,157.71,216.43Z" transform="translate(-129.08 -191.79)"/><path class="cls-3" d="M164.1,247.44c-.41-.33-.82-.55-1.19-.81a4.64,4.64,0,0,1-1.65-1.81,1.12,1.12,0,0,0-.6-.63,1,1,0,0,1-.59-.67,2.57,2.57,0,0,0-.28-.66,1.66,1.66,0,0,1-.26-1,1.06,1.06,0,0,0-.47-1,1.4,1.4,0,0,1-.57-1.36c.07-1.14.24-2.27.29-3.41,0-.37.3-.51.63-.33a.68.68,0,0,0,.52.09.55.55,0,0,0,.46-.35c.07-.21-.13-.3-.25-.41a3.47,3.47,0,0,1-.7-.68.58.58,0,0,0-.69-.28l-.34.08a.73.73,0,0,1-.67-.42.49.49,0,0,1,.16-.64,9.66,9.66,0,0,1,.93-.73.49.49,0,0,1,.8.26c.05.16.1.32.16.47a.9.9,0,0,0,.51.52c.13,0,.26.08.37-.05s.35-.33.37-.59A.16.16,0,0,0,161,233a1.36,1.36,0,0,1-.49-1.15.72.72,0,0,0-.31-.59c-.47-.32-.52-.47-.39-1a.93.93,0,0,0-.61-1.24c-.2-.08-.29-.19-.24-.4s0-.28-.18-.38-.49-.07-.74,0a.66.66,0,0,1-.95-.65c0-.11,0-.23,0-.35a1,1,0,0,0-.16-.57c-.19-.35-.42-.38-.68-.08l-.08.08c-.19.2-.31.19-.45,0s-.13-.3-.22-.44a.47.47,0,0,0-.72-.09,1,1,0,0,0-.27.9,4.22,4.22,0,0,0,.94,2,.62.62,0,0,1,.15.81.74.74,0,0,0,0,1,1.18,1.18,0,0,1,.14.22,1.8,1.8,0,0,1,.25,1.51c-.06.16-.11.33-.3.36s-.34-.09-.46-.24a1.49,1.49,0,0,1-.23-.85.67.67,0,0,0-.35-.62.43.43,0,0,1-.27-.33.84.84,0,0,0-1.08-.6,8.14,8.14,0,0,0,.24,1.38c.34,1.35.7,2.68,1.13,4a25.81,25.81,0,0,0,2.71,6.1,44.65,44.65,0,0,0,3.77,5.27c.07.08.12.2.24.2a7.74,7.74,0,0,1,1.43.3A2.35,2.35,0,0,0,164.1,247.44Z" transform="translate(-129.08 -191.79)"/><path class="cls-3" d="M181.19,258a.47.47,0,0,0,0-.51c-.21-.44-.17-.54.3-.68a.41.41,0,0,0,.35-.33.45.45,0,0,0-.23-.43,5.43,5.43,0,0,0-.57-.35,1.33,1.33,0,0,1-.69-1.53c.13-.86.05-1-.86-1.22a.86.86,0,0,0-.17,0,5.35,5.35,0,0,1-2.1-.68.55.55,0,0,0-.69.06,1.06,1.06,0,0,1-.8.27,1.41,1.41,0,0,1-.86-.36.47.47,0,0,0-.74,0c-.34.29-.56.24-.74-.17-.07-.15-.11-.32-.29-.37a2.66,2.66,0,0,1-.75-.43,2.6,2.6,0,0,0-1.19-.49c-.46-.05-.91-.12-1.37-.15a2.39,2.39,0,0,1-1.35-.52c-.26-.2-.51-.42-.75-.63a.79.79,0,0,0-1-.14,1.22,1.22,0,0,1-1.36,0,.63.63,0,0,0-.36-.1.77.77,0,0,0-.69.48.55.55,0,0,0,.21.67,40.11,40.11,0,0,0,3.35,2.47,21.33,21.33,0,0,0,5.5,3,41.9,41.9,0,0,0,5.15,1.69C179.4,257.66,180.28,257.86,181.19,258Z" transform="translate(-129.08 -191.79)"/><path class="cls-3" d="M153.29,220.74l.34-.11c.29-.09.41,0,.5.25a2.45,2.45,0,0,1,.08.37,2.38,2.38,0,0,1-.2,1.29c-.07.16-.16.32,0,.49a.83.83,0,0,1,.11,1c-.1.19,0,.32.2.34a.6.6,0,0,0,.23,0,1.09,1.09,0,0,1,1.13.39c.12.13.23.16.36,0s.26-.2.09-.4a.42.42,0,0,1,.07-.64,2.75,2.75,0,0,1,.26-.22.25.25,0,0,0,.07-.41,1.28,1.28,0,0,1-.11-.2c-.27-.51-.25-.63.16-1a.69.69,0,0,1,.13-.11.55.55,0,0,0,.21-.56,2,2,0,0,0-.56-1.05,1.74,1.74,0,0,1-.53-1.6.33.33,0,0,0,0-.14.81.81,0,0,0-.89-.8.59.59,0,0,1-.57-.31,3.77,3.77,0,0,1-.29-.48A26.88,26.88,0,0,0,153.29,220.74Z" transform="translate(-129.08 -191.79)"/><path class="cls-1" d="M209.3,221.63a3.22,3.22,0,0,1-1.31-.5,2.26,2.26,0,0,0-1.42-.28.38.38,0,0,0-.28.62,1.1,1.1,0,0,0,1,.55.75.75,0,0,1,.74.31.58.58,0,0,0,1-.13Z" transform="translate(-129.08 -191.79)"/><path class="cls-4" d="M197.31,329.47m-46.76,35.82c-5.41,2.58-11-.06-12-5.88a22.37,22.37,0,0,1-.22-4.91,49.32,49.32,0,0,1,4.1-16.59,8.81,8.81,0,0,1,2.33-3.1c1.8-1.57,3.79-2.94,6-4.64-5.76-1.15-10.47-3.34-14.27-7.84-.21,1.1-.37,1.75-.45,2.4A51.51,51.51,0,0,1,133,336.88c-2.82,7.33-4.51,14.93-3.66,22.88,1,9.13,7.83,15.47,17,15.61a21.28,21.28,0,0,0,11.83-3.81m3.06-117.4c-.36.93-.6,1.47-.79,2Q150.26,285,140.14,313.82a19.52,19.52,0,0,0-.85,3.17,8.21,8.21,0,0,0,5.36,9.3,8,8,0,0,0,9.81-3.9q16.11-28.08,32.22-56.16c.29-.51.92-.82,1.39-1.22l-.77-.64A33.86,33.86,0,0,1,161.19,254.16Z" transform="translate(-129.08 -191.79)"/><path d="M350.23,373.21c-3.59,2.29-199.59,2.23-203.93,2.16-9.17-.14-16-6.48-17-15.61-.85-7.95.84-15.55,3.66-22.88a51.51,51.51,0,0,0,3.09-12.15c.08-.65.24-1.3.45-2.4,3.8,4.5,8.51,6.69,14.27,7.84-2.25,1.7-4.24,3.07-6,4.64a8.81,8.81,0,0,0-2.33,3.1,49.32,49.32,0,0,0-4.1,16.59,22.37,22.37,0,0,0,.22,4.91c1.07,5.82,6.8,7.94,14.85,8.67" transform="translate(-129.08 -191.79)"/><path d="M161.19,254.16a33.86,33.86,0,0,0,26.11,10.21l.77.64c-.47.4-1.1.71-1.39,1.22q-16.14,28.06-32.22,56.16a8,8,0,0,1-9.81,3.9,8.21,8.21,0,0,1-5.36-9.3,19.52,19.52,0,0,1,.85-3.17Q150.25,285,160.4,256.19C160.59,255.63,160.83,255.09,161.19,254.16Z" transform="translate(-129.08 -191.79)"/></svg>