<?xml version="1.0" encoding="utf-8"?>
<!-- Generator: Adobe Illustrator 27.2.0, SVG Export Plug-In . SVG Version: 6.00 Build 0)  -->
<svg version="1.1" id="Calque_1" xmlns="http://www.w3.org/2000/svg" xmlns:xlink="http://www.w3.org/1999/xlink" x="0px" y="0px"
	 viewBox="0 0 764.6 504.4" style="enable-background:new 0 0 764.6 504.4;" xml:space="preserve">
<style type="text/css">
	.st0{enable-background:new    ;}
</style>
<g id="LOGO_POS_CAP_BULLE_EXCLAM_NOIR_PNG.psd">
	<g id="LOGO_x5F_POS_x5F_CAP_x5F_BULLE_x5F_EXCLAM_x5F_NOIR_x5F_PNG.psd" class="st0">
		<g>
			<path d="M63.2,349.7c0.9,1.7,1.6,3,2.4,4.5c0.1,2.6,0.5,5.3-0.5,7.9c-0.1,4.9-1.4,9.6-2.4,14.3c-0.8,3.8-1.3,7.7-2.7,11.3
				c0.2,3-1.6,5.6-1.7,8.6c0,0.7-0.4,1.4-0.6,2.1c-1.1,3.5-1.8,7.1-2.4,10.7c-0.2,1.4-0.6,2.9-1,4.3c-0.8,2.9-1.3,5.9-2,8.9
				c-1.3,4.9-1.8,10-3.4,14.9c-0.5,1.5,0,3.2-0.7,4.6c-0.5,3.9-1.5,7.6-1.7,11.5c-0.1,1.8-0.7,3.6-1.1,5.3c-0.1,0.6,0,1.2,0,1.8
				c1.6-0.8,3.4-2.2,4.3-3.5c1.5-2.1,3.2-3.9,5.2-5.6c1.9-1.7,3.5-3.7,5.2-5.6c0.3-0.4,0.5-0.9,0.9-1.1c2.6-1.7,4.5-4.1,6.5-6.3
				c0.9-1,1.7-2.1,2.5-3.1c0.2-0.3,0.3-0.7,0.6-0.9c1.3-0.8,2-2.1,2.8-3.3c1.2-1.8,2.7-3.5,4.3-4.9c2.6-2.2,4.8-4.8,7-7.4
				c0.6-0.7,1.4-1.3,2.1-2c1.4-1.5,2.7-3.2,4.2-4.6c2.4-2.1,4.2-4.6,6.6-6.8c2.3-2.1,4.4-4.6,6.7-6.8c3.3-3.2,6-7,9.8-9.8
				c2.4-3.1,5.5-5.4,8.2-8.2c2.6-2.7,5.5-5.2,8.1-7.9c1.5-1.6,3.2-3,4.5-4.8c0.7-1,1.9-1.6,2.7-2.4c1.6-1.7,3.2-3.2,5-4.6
				c0.1-0.4,0.2-0.8,0.4-1.1c3.8-2.7,6.9-6.1,10.5-9.2c1.9,0,3.8,0,6.1,0c2,0.5,3.2,2.5,4.8,4c1.8,0.2,3.5,0.8,4.8,2.2
				c1.5,1.6,3.2,3.1,4.5,4.8c4,5.1,8.2,10,13.1,14.2c4.7,4.1,9.3,8.3,14,12.4c1.1,1,2.3,1.8,3.5,2.6c2.7,1.8,5.4,3.8,8,5.7
				c3.6,2.5,7.1,5.1,11.4,6.3c0.9,0.3,1.7,0.9,2.5,1.4c3,2.1,6.3,3.7,9.7,5c0.9,0.4,1.7,0.8,2.5,1.3c1.1,0.8,2.2,1.5,3.5,1.9
				c7.3,2.7,14.1,6.4,21.6,8.7c2.3,0.7,4.5,1.7,6.9,2.1c1.1,0.2,2.2,0.6,3,1.2c2.5,1.7,5.4,2.1,8.1,3c2.9,1,5.8,1.7,8.7,2.7
				c2.4,0.9,4.9,1.3,7.4,1.9c2.3,0.6,4.7,1.4,7,2c3.4,0.9,6.8,1.9,10.3,2.5c0.1,0,0.3,0,0.4,0c1.9,1.6,4.4,0.9,6.5,1.6
				c2,0.7,4.3,0.8,6.4,1.3c4,0.8,8.2,1.2,12.2,2.2c4.8,1.3,9.8,1.4,14.7,2.6c1.6,0.4,3.4,0.3,5.1,0.2c2.4-0.1,4.6,0.6,6.8,1
				c1.1,0.2,2.1,0.4,3.2,0.4c1.7-0.1,3.4,0,5.1,0c1.7,0,3.4,0.3,4.8,1.2c0.7-0.1,1.3-0.4,1.8-0.4c0.8,0.1,1.6,0.5,2.5,0
				c0.2-0.1,0.5-0.2,0.7-0.1c1.8,0.4,3.5,0.6,5.4,0.3c1.8-0.2,3.6,0.2,5.5,0.2c1.8,0.1,3.7,0.1,5.5,0.1c3.1,0,6.1,0.2,9.1-0.2
				c4.5-0.6,9-0.4,13.5-0.6c1.3,0,2.7,0.1,4-0.5c0.6-0.3,1.4-0.2,2.2-0.2c1.7,0,3.4,0.1,5.1-0.6c0.4-0.2,1-0.1,1.5-0.1
				c5,0,9.8-1.4,14.8-1.7c2.3-0.9,4.8-0.9,7.1-1.4c1.8-0.4,3.6-0.6,6.1-1c1.9-0.9,4.7-1.2,7.4-1.9c2.6-0.7,5.2-0.9,7.8-1.8
				c3.1-1,6.4-1.5,9.5-2.4c3.9-1.2,7.9-2.1,11.8-3.5c2.6-0.9,5.3-1.7,8-2.5c0.7-0.2,1.4-0.5,2-0.8c2.7-1,5.5-2,8.2-2.9
				c1.3-0.4,2.6-0.8,3.8-1.3c2.1-0.9,4.2-2,6.5-2.3c4.1-1.9,8.5-2.8,12.7-4.4c0.5-0.2,0.9-0.3,1.3-0.6c1.3-1,2.7-1.6,4.3-1.8
				c0.2,0,0.5-0.1,0.7-0.3c2.1-1.7,4.9-2.2,7.3-3.3c4.2-2,8.1-4.4,12.1-6.7c1.1-1.5,3.1-1.3,4.3-2.6c2.9-0.7,5-2.6,7-4.5
				c1.8-1.7,3.9-3,5.9-4.2c1.8-1.1,3.6-2.4,5.4-3.6c1.8-1.1,3.4-2.8,5.1-4.2c0.6-0.5,1.1-0.9,1.8-1.3c1.4-0.7,2.6-1.8,3.8-2.8
				c2.8-2.1,4.9-4.7,7.1-7.3c1.7-0.4,3.4-0.7,5-1.3c1.5-0.6,2.8-0.4,4.2,0.1c1,0.4,2,0.8,3.2,1.3c1.7,2.5,1.9,5.5,1.5,8.6
				c-1.1,1.5-2.2,3.1-3.4,4.6c0.5,0.4,0.9,1.1,0.9,1.5c-0.6,0.6-1.4,0.2-2.4,0.4c-0.1,0.1-0.3,0.4-0.5,0.7c-2.2,2.9-4.3,5.9-6.6,8.7
				c-2.2,2.7-5.2,4.4-8.1,6.2c-2.1,1.3-3.8,3-6.1,3.9c-0.8,1.3-2.1,1.9-3.4,2.6c-1.2,0.6-2,1.7-3.2,2.3c-4.2,2.2-8.2,4.8-12.4,7
				c-0.9,0.5-1.9,1.2-3.1,1c-0.3,0-0.7,0.2-1,0.4c-2,1.7-4.4,2.6-6.8,3.5c-4,1.5-7.6,3.7-11.7,5c-2.2,1.8-5.1,2.2-7.7,3.3
				c-0.8,0.3-1.6,0.6-2.4,1c-1.8,1-3.6,1.9-5.7,2.2c-0.5,0.1-0.9,0.3-1.3,0.6c-1.9,1.1-3.9,1.8-6.1,2.3c-0.2,0.1-0.6,0-0.7,0.1
				c-2.4,1.9-5.6,1.6-8.1,3.1c-0.7,0.4-1.6,0.7-2.4,0.8c-2.9,0.4-5.5,1.8-8.3,2.7c-0.7,0.2-1.4,0.5-2.1,0.7
				c-1.7,0.5-3.5,0.8-5.2,1.5c-1.9,0.7-4,0.8-6,1.5c-1.9,0.8-4,1-5.9,1.6c-2.6,0.7-5.2,1.3-7.7,2.2c-2.3,0.8-4.6,1.4-7,1.9
				c-3.7,0.7-7.4,1.3-11.1,1.8c-1.4,0.2-2.8,0.8-4.5,1.4c-1.6,0-3.5,0.2-5.4,0.7c-3.4,0.8-6.9,1.2-10.3,1.6
				c-1.9,0.2-3.9,0.3-5.8,0.6c-3.5,0.7-7.1,0.4-10.5,0.9c-3.2,0.4-6.3,0.4-9.4,0.5c-0.5,0-1,0-1.5,0.1c-4.6,1.1-9.2,0.4-13.9,0.5
				c-0.6,0-1.2-0.3-1.9-0.4c-0.6,0.2-1.2,0.4-2,0.6c-1,0.2-1.7-0.7-2.8-0.3c-0.8,0.3-1.7,0.2-2.5,0.2c-0.5,0-1,0.1-1.5,0
				c-2-0.8-4.1-0.5-6.1-0.6c-1.8-0.1-3.6,0.1-5.4-0.5c-1.7-0.5-3.7,0.2-5.4-0.8c-0.4-0.2-1-0.1-1.4-0.1c-2.9,0.2-5.8,0.1-8.6-0.6
				c-0.1,0-0.2,0-0.4,0c-1.3-0.1-2.5,0.3-3.8,0c-1.4-0.3-2.9-0.1-4.3-0.5c-1.3-0.3-2.6-0.5-4-0.7c-1-0.1-1.9-0.4-2.9-0.4
				c-2.5-0.1-4.8-0.5-7.2-1.2c-1.7-0.5-3.6-0.4-6-0.7c-2.1-1-5-1.4-7.9-1.6c-1.8-0.2-3.5-0.8-5.3-1.2c-1.8-0.4-3.6-0.8-5.3-1.2
				c-1.7-0.4-3.3-0.8-5-0.8c-0.6,0-1.2-0.2-1.8-0.4c-1.6-0.5-3.2-1-4.9-1.2c-1.5-0.2-2.9-1.3-4.5-1.3c-1.7-1.2-3.8-0.6-5.6-1.5
				c-1.7-0.8-3.8-1-5.6-1.5c-1.9-0.6-3.6-1.6-5.5-1.9c-2.9-0.4-5.5-1.9-8.4-2.5c-1-0.2-2-1.1-3-1.2c-1.5-0.2-2.4-1.6-4-1.5
				c-1.3,0.1-2.6-0.5-3.8-1c-0.9-0.3-1.8-0.8-2.6-1.2c-2.1-1-4.1-2.1-6.4-2.5c-1.9-0.4-3.7-1.3-5.4-2.2c-1.4-0.8-2.8-1.3-4.3-1.9
				c-2.4-0.9-4.7-1.9-6.9-3.2c-0.3-0.2-0.6-0.5-0.9-0.5c-2.7-0.2-4.6-2.1-7-3.1c-2.2-1-4.4-2.1-6.5-3.3c-4.7-2.5-9.5-5-14.2-7.5
				c-1.2-0.6-2.3-1.3-3.5-2c-6.5-4.3-12.9-8.9-19-13.6c-2.1-1.6-4.1-3.5-6.1-5.2c-2-1.6-4-3.2-6-4.8c-1.3-1.1-2.8-2-3.9-3.3
				c-4.4-4.7-9.3-9-14-13.5c-1.4-1.3-2.8-2.7-4.3-4.1c-0.8,0.2-1.6,0.2-2.1,0.6c-2.3,1.8-4.7,3.5-6.2,6.1c-0.6,1-1.4,2-2.3,2.8
				c-4.5,4.1-8.1,9.1-12.7,13.1c-1.1,1.8-2.9,2.9-4.1,4.6c-1.1,1.4-2.8,2.3-3.9,3.8c-2.8,1.9-4.6,4.6-6.8,7
				c-0.4,0.5-0.8,0.9-1.3,1.3c-2.3,1.6-4,3.8-5.7,5.9c-1.8,2.1-3.7,4.2-5.6,6.2c-0.7,0.8-1.6,1.5-2,2.6c-0.1,0.3-0.4,0.7-0.7,0.8
				c-2.4,1.2-3.6,3.5-5.4,5.4c-1.6,1.7-3.2,3.3-4.8,5.1c-1,1.2-2,2.4-2.9,3.7c-1,1.4-2.2,2.6-3.4,3.9c-2.5,2.6-4.9,5.3-7.4,8
				c-1.6,1.7-3.4,3.1-4.8,5c-2.9,3.8-6.3,7.1-9.7,10.4c-1,1-1.8,2.3-2.8,3.3c-1,0.9-1.7,2-2.4,3.1c-0.6,1-1.4,2-2.6,2.5
				c-0.3,0.1-0.7,0.3-0.9,0.6c-2.3,2.3-4.6,4.7-7.3,7.4c-1.1,0.6-2.7,1.3-4.2,2.1c-1.4-0.3-2.6-0.5-3.8-0.7
				c-1.1-2.2-2.2-4.4-3.1-6.2c-2.1-1.8-4.3-2.5-6.7-3.4c-0.5-0.9-1.2-1.9-1.7-2.7c-0.3-2.2-0.5-4.1-0.8-6.8c0.2-1.7,1.2-4.1,0.9-6.7
				c0-0.1,0-0.2,0-0.4c1.3-3.9,1-8.2,2.2-12.1c0.5-1.5,0.7-3.1,0.9-4.6c0.5-4,1.6-7.9,2.4-11.8c1.2-5.8,2.9-11.5,4.3-17.3
				c0.3-1.3,0.6-2.6,0.9-3.9c0.1-0.5,0.1-1,0.3-1.4c1.6-3.2,1.6-6.8,3-10.1c0.3-3.1,1.8-5.8,2.4-8.8c0.7-3.1,1.7-6.1,2.4-9.1
				c0.4-1.7,1.3-3.4,1.6-5.2c0.1-0.6,0.4-1.2,0.4-1.8c-0.1-2.6,0.9-5,1.7-7.4c0.3-1.1,0.9-2.2,0.9-3.5c0-0.5,0.5-1,0.7-1.6
				c0.7-1.7,1.4-3.4,2.1-5.2c0.6-0.5,1.2-1,2-1.7C60.3,349.8,61.6,349.7,63.2,349.7z"/>
			<path d="M671.5,159.7c0,0.9-0.2,1.6-0.1,2.3c0.3,2.5,0.6,4.9,0.1,7.5c-0.4,1.8-0.2,3.6-0.4,5.4c-0.1,1.4-0.6,2.9-0.5,4.3
				c0.1,1.4,0,2.7-0.2,4c-0.3,2.1-0.9,4.2-1.4,6.4c-0.3,1.6-1.3,2.5-2.8,3c-1.5,0.5-2.9,1.1-4.5,0.1c-0.5-0.3-1.4,0.1-2.4,0.1
				c-0.9-0.9-1.9-1.9-3-3.1c0-2.1,0-4.2,0-6.3c0-6.4,0.1-12.7,0-19.1c0-1.7-0.1-3.4-0.4-5c-1-4.5-1.4-9.1-3-13.5
				c-0.4-1-0.3-2.2-0.5-3.2c-0.6-2.2-1-4.5-2-6.6c-0.4-0.7-0.4-1.7-0.7-2.4c-1.1-3-2.2-5.9-3.3-8.9c-0.9-2.4-1.9-4.7-3.2-6.9
				c-1.8-3-3.4-6.2-4.9-9.4c-0.8-1.8-2-3.3-2.9-5.1c-1.6-3.2-3.8-5.9-5.9-8.7c-1.9-2.5-3.9-5-5.9-7.4c-3-3.6-6.2-7.2-9.2-10.8
				c-0.6-0.8-1.2-1.5-2-2.1c-0.6-0.4-1.1-1-1.6-1.5c-1.3-1.6-2.4-3.4-4.6-4c-1.7-2.2-4.1-3.4-6.1-5.1c-2.4-2.1-4.9-4.1-7.8-5.4
				c-1.6-0.7-2.7-2-4.2-2.8c-2-1.2-4.1-2-6.3-3c-0.2,0.1-0.6,0.2-0.9,0.3c-0.8-0.3-1.6-0.5-2.7-0.9c-0.2-0.2-0.7-0.6-1.2-1
				c-0.8-0.7-1.7-1.4-2.8-1.8c-3.3-1.2-6.6-2.5-9.9-3.7c-3.6-1.4-7.4-2.4-11.1-3.4c-2.9-0.8-5.9-1.5-8.9-1.8
				c-0.7-0.1-1.4-0.4-2.1-0.6c-1.2-0.4-2.3-0.7-3.6-0.6c-0.6,0-1.3,0.1-1.8-0.2c-1.8-0.8-3.6-0.4-5.4-0.6c-1.1-0.1-2.2,0.3-3.2-0.5
				c-0.2-0.2-0.7-0.2-1.1-0.2c-3.9,0.3-7.8-0.7-11.7-0.8c-2.5-0.1-5.1-0.4-7.6-0.7c-0.9-0.1-1.9-0.5-2.9-0.8
				c-0.2-0.6-0.4-1.1-0.5-1.7c-0.2-0.9-0.4-1.9-0.7-2.9c0.3-0.9,0.7-1.9,1.1-3.2c1-0.4,2.1-0.9,3.3-1.2c3.3-0.7,6.7-1.3,10.1-0.9
				c2.1,0.3,4.3,0.5,6.5,0.6c2.2,0.1,4.4,0,6.6,0.1c1.5,0,2.9,0,4.4,0.5c0.4,0.2,1,0.1,1.4,0.2c5.1,0.2,10.1,1.2,15.1,2.2
				c2.5,0.5,4.8,1.8,7.4,1.8c1.4,1.2,3.2,1,4.8,1.5c1.5,0.5,2.9,1.2,4.4,1.8c0.7,0.2,1.4,0.2,2.1,0.4c2.4,0.7,4.8,1.5,7.1,2.8
				c1.1,0.6,2.5,1,3.7,1.4c0.2,0.1,0.5,0,0.7,0.2c2.2,1.8,5.1,2.3,7.5,3.6c0.7,0.4,1.3,1,2,1.4c1.5,1,3.3,1.5,4.8,2.6
				c0.4,0.3,1.2,0.2,1.7,0.3c0.6,0.7,1.1,1.6,1.8,1.9c1.8,0.7,2.8,2.8,4.8,2.6c2.7,3.3,6,5.5,9.4,7.6c1,0.7,1.9,1.6,2.9,2.1
				c1.1,0.6,1.6,1.5,2.3,2.3c0.6,0.6,1.1,1.4,1.8,1.8c2.1,1.3,3.5,3.3,5,5.1c1.8,2.1,3.3,4.5,5.7,6c0.6,1.2,1.8,2,2.5,3.1
				c1.5,2.3,3.4,4.4,4.9,6.7c1.2,1.9,2.4,3.9,3.9,5.7c1.7,2.1,2.9,4.5,4.4,6.7c1.8,2.7,2.8,5.9,4.8,8.5c0.2,0.3,0.4,0.6,0.5,0.9
				c1,3.2,2.9,5.9,4.5,8.8c2,3.6,4.3,7.1,6.3,10.7c0.7,1.3,1.2,2.6,1,4.2c-0.3,2,0.3,3.8,0.8,5.7c1.3,4.9,2.9,9.7,4.1,14.7
				c0.2,0.8,0.1,1.7,0.2,2.5C670.5,156.2,670.7,158.2,671.5,159.7z"/>
			<path d="M725.6,294.4c-1.7-2.8-2.4-5.6-3-8.4c-0.2-0.9-0.1-1.9-0.1-2.9c0-1.8,0-3.7,0.1-5.5c0.1-1.7,0.2-3.4,0.3-5.1
				c0.1-3.2,0.3-6.3,0.4-9.5c0.1-2.1,0.3-4.1,0.5-6.2c0.4-2.8,1.1-5.7,0.4-8.6c-0.2-0.9-0.3-2,0-2.9c0.5-1.6,0.4-3.1,0.5-4.7
				c0.1-1.4-0.1-2.9,0.5-4.3c0.2-0.5,0.2-1.2,0.2-1.8c0.1-2,0.1-3.9,0.2-5.9c0.1-2.2,0.4-4.3,0.5-6.5c0.2-2.1,0.2-4.1,0.6-6.2
				c0.6-3.1,0.7-6.3,1-9.4c0.2-1.3,0.5-2.6,1-3.9c0-0.1,0.1-0.3,0-0.3c-0.5-0.6-0.4-1.4-0.3-2.1c0.5-2.7,1.1-5.4,1.7-8.1
				c-0.1-0.4-0.5-1-0.3-1.3c0.4-1,0.1-2.1,0.3-3.2c0.2-1,0.4-1.9,0.6-2.8c0.3-1.3,0.5-2.6,0.9-3.9c0.3-1.1,0.2-2.3,0.3-3.5
				c0.2-2.4,1.1-4.7,1.5-7.2c-0.1-0.3-0.2-0.6-0.4-1c0.4-2,1.2-3.9,1.2-6c0-1.1,0.4-2.1,0.7-3.2c0.5-2.5,0.9-5,1.5-7.5
				c0.4-1.7,1-3.2,1.4-4.9c0.4-1.6,1.2-2.9,2.5-3.9c2.3-0.9,4.7-1.4,7.3-1c0.9,0.5,1.9,1.2,2.9,1.8c1.1,1.4,1.4,2.9,1.4,4.5
				c-0.1,2.3-0.1,4.7,0,7c0.1,1.9-0.2,3.9-0.3,5.8c-0.1,1.4-0.2,2.9-0.3,4.4c-0.1,2.2,0.2,4.4-0.7,6.5c-0.2,0.5,0,1.2-0.1,1.8
				c-0.1,1.9,0,3.9-0.6,5.8c-0.2,0.6-0.1,1.2-0.1,1.8c-0.2,2,0,4.1-0.6,6.2c-0.3,0.9-0.1,1.9-0.2,2.9c-0.2,3-0.5,6-1.2,9
				c-0.1,0.5-0.2,1-0.2,1.4c-0.1,3.1-0.7,6-1.3,9c-0.4,2.1-0.7,4.3-0.9,6.5c-0.3,3.4-1.2,6.7-1.7,10.1c-0.3,2-0.8,4-1.2,6.1
				c-0.6,2.9-0.9,5.8-2,8.5c-0.5,1.3-0.6,2.8-0.9,4.3c-0.4,2-1,4-1.3,6c-0.6,3.7-2,7.2-2.7,10.9c-0.7,3.6-1.7,7.1-2.6,10.6
				c-1.6,6.1-3,12.3-5.1,18.2C727.4,293.1,727.4,293.1,725.6,294.4z"/>
			<path d="M723.1,345.9c-0.6,0-1.4,0-2.7,0c-0.6-0.6-1.4-1.4-1.7-1.7c-1.5-5.7-4.3-10.3-4.8-15.5c0.3-1.4,0.5-2.8,0.8-4.3
				c1.6-1.5,3.5-2.5,5.7-3.3c0.8,0.2,1.7,0.4,2.8,0.6c0.4-0.1,0.8-0.3,1.3-0.5c0.8,0.2,1.8,0.4,3,0.7c0.9,0.7,2.2,1.5,3.1,2.6
				c0.9,1.1,1.4,2.5,2.1,3.9c0,2,0,4,0,5.9c-1.5,2.3-3,4.4-4.3,6.6C727.3,343.2,725.6,344.9,723.1,345.9z"/>
		</g>
	</g>
</g>
<g>
	<path d="M117.8,186.8V93.7h34.9c7.1,0,13.2,1.3,18,4s8.6,6.3,11.1,11s3.8,9.9,3.8,15.8c0,5.9-1.3,11.3-3.8,15.9
		c-2.5,4.6-6.2,8.3-11.1,10.9c-4.9,2.6-10.9,4-18.1,4h-23.1v-13.9h20.9c4.2,0,7.6-0.7,10.3-2.2c2.7-1.4,4.6-3.4,5.9-6
		s1.9-5.5,1.9-8.8s-0.6-6.2-1.9-8.7s-3.3-4.5-5.9-5.9c-2.7-1.4-6.1-2.1-10.3-2.1H135v79L117.8,186.8L117.8,186.8z"/>
	<path d="M215.9,93.7v93.1h-16.4V93.7C199.4,93.7,215.9,93.7,215.9,93.7z"/>
	<path d="M252.9,188.2c-4.4,0-8.4-0.8-11.9-2.4s-6.3-3.9-8.4-7.1c-2.1-3.1-3.1-7-3.1-11.6c0-3.9,0.7-7.2,2.2-9.8
		c1.4-2.6,3.4-4.6,5.9-6.2c2.5-1.6,5.4-2.7,8.5-3.5c3.2-0.8,6.4-1.4,9.8-1.8c4.1-0.4,7.4-0.8,9.9-1.2s4.4-0.9,5.6-1.6
		c1.2-0.7,1.8-1.9,1.8-3.5v-0.3c0-3.4-1-6.1-3-7.9c-2-1.9-5-2.8-8.8-2.8c-4,0-7.2,0.9-9.6,2.6s-3.9,3.8-4.8,6.2l-15.4-2.2
		c1.2-4.2,3.2-7.8,6-10.7s6.2-5,10.2-6.4s8.5-2.2,13.4-2.2c3.4,0,6.7,0.4,10,1.2c3.3,0.8,6.4,2.1,9.1,3.9c2.8,1.8,5,4.2,6.7,7.3
		s2.5,6.9,2.5,11.6v46.7h-15.8v-9.6h-0.5c-1,1.9-2.4,3.8-4.2,5.4c-1.8,1.7-4.1,3-6.8,4.1S256.5,188.2,252.9,188.2L252.9,188.2z
		 M257.1,176.1c3.3,0,6.2-0.7,8.6-2s4.3-3.1,5.6-5.2c1.3-2.2,2-4.6,2-7.1v-8.2c-0.5,0.4-1.4,0.8-2.6,1.2s-2.6,0.7-4.1,0.9
		c-1.5,0.3-3,0.5-4.5,0.7s-2.8,0.4-3.9,0.6c-2.4,0.3-4.6,0.9-6.6,1.6s-3.5,1.8-4.6,3.2s-1.7,3.1-1.7,5.2c0,3,1.1,5.3,3.3,6.9
		C250.9,175.4,253.7,176.1,257.1,176.1L257.1,176.1z"/>
	<path d="M322.8,145.9v40.9h-16.5V117H322v11.9h0.8c1.6-3.9,4.2-7,7.7-9.3s7.9-3.4,13.1-3.4c4.8,0,9,1,12.6,3.1s6.4,5.1,8.4,9
		c2,3.9,3,8.6,2.9,14.2v44.4H351V145c0-4.7-1.2-8.3-3.6-10.9c-2.4-2.6-5.7-3.9-10-3.9c-2.9,0-5.4,0.6-7.7,1.9s-4,3.1-5.2,5.4
		C323.4,139.7,322.7,142.5,322.8,145.9L322.8,145.9z"/>
	<path d="M415.3,188.2c-7,0-13-1.5-18.1-4.4s-9-7.1-11.7-12.4s-4.1-11.7-4.1-19s1.4-13.5,4.1-18.9s6.6-9.7,11.5-12.7
		c4.9-3.1,10.7-4.6,17.4-4.6c4.3,0,8.4,0.7,12.2,2.1c3.8,1.4,7.2,3.5,10.2,6.4s5.3,6.5,7,11s2.5,9.7,2.5,15.8v5.1h-57.2v-11.1h41.5
		c0-3.1-0.7-6-2-8.4c-1.3-2.5-3.2-4.4-5.6-5.8s-5.1-2.1-8.3-2.1c-3.4,0-6.3,0.8-8.9,2.4s-4.5,3.7-5.9,6.4s-2.1,5.5-2.2,8.6v9.7
		c0,4.1,0.7,7.5,2.2,10.4s3.6,5.1,6.2,6.6s5.8,2.3,9.4,2.3c2.4,0,4.6-0.3,6.5-1s3.6-1.7,5-3s2.5-3,3.2-4.9l15.4,1.7
		c-1,4.1-2.8,7.6-5.5,10.6s-6.2,5.4-10.4,7S420.7,188.2,415.3,188.2L415.3,188.2z"/>
	<path d="M495.1,117v12.7H455V117H495.1L495.1,117z M464.8,100.3h16.5v65.6c0,2.2,0.3,3.9,1,5.1s1.6,2,2.7,2.4s2.4,0.6,3.7,0.6
		c1,0,2-0.1,2.8-0.2s1.5-0.3,2-0.4l2.8,12.9c-0.9,0.3-2.1,0.6-3.8,1s-3.6,0.6-5.9,0.6c-4.1,0.1-7.8-0.5-11.1-1.9
		c-3.3-1.4-5.9-3.5-7.8-6.4s-2.9-6.6-2.8-10.9v-68.4H464.8z"/>
	<path d="M200.9,272.1c0,10-1.9,18.6-5.6,25.8c-3.7,7.1-8.8,12.6-15.3,16.4c-6.4,3.8-13.7,5.7-21.9,5.7s-15.4-1.9-21.9-5.7
		c-6.4-3.8-11.5-9.3-15.3-16.4c-3.7-7.1-5.6-15.7-5.6-25.7s1.9-18.6,5.6-25.8s8.8-12.6,15.3-16.4s13.7-5.7,21.9-5.7
		s15.4,1.9,21.9,5.7s11.5,9.2,15.3,16.4S200.9,262.1,200.9,272.1L200.9,272.1z M184,272.1c0-7.1-1.1-13-3.3-17.9s-5.2-8.6-9.1-11.1
		c-3.9-2.5-8.4-3.8-13.4-3.8s-9.5,1.2-13.4,3.8s-6.9,6.2-9.1,11.1c-2.2,4.9-3.3,10.8-3.3,17.9s1.1,13,3.3,17.9s5.2,8.5,9.1,11
		s8.4,3.8,13.4,3.8s9.5-1.2,13.4-3.8s6.9-6.2,9.1-11C182.9,285.1,184,279.2,184,272.1L184,272.1z"/>
	<path d="M232.7,277.7v40.9h-16.4v-69.8H232v11.9h0.8c1.6-3.9,4.2-7,7.7-9.3s7.9-3.4,13.1-3.4c4.8,0,9,1,12.6,3.1s6.4,5.1,8.4,8.9
		c2,3.9,3,8.6,2.9,14.2v44.5H261v-41.9c0-4.7-1.2-8.3-3.6-11c-2.4-2.6-5.7-4-10-4c-2.9,0-5.4,0.6-7.7,1.9c-2.2,1.3-4,3.1-5.2,5.4
		S232.7,274.4,232.7,277.7L232.7,277.7z"/>
	<path d="M377.4,251.1c-0.4-4-2.2-7.1-5.3-9.3c-3.1-2.2-7.2-3.3-12.2-3.3c-3.5,0-6.5,0.5-9,1.6s-4.4,2.5-5.8,4.3s-2,3.9-2,6.2
		c0,1.9,0.5,3.6,1.3,5.1c0.9,1.4,2.1,2.6,3.7,3.6c1.5,1,3.3,1.8,5.1,2.5s3.8,1.2,5.7,1.7l8.7,2.2c3.5,0.8,6.9,1.9,10.2,3.3
		c3.3,1.4,6.2,3.1,8.8,5.3s4.6,4.7,6.2,7.7c1.5,3,2.3,6.5,2.3,10.5c0,5.5-1.4,10.2-4.2,14.4c-2.8,4.1-6.8,7.4-12.1,9.7
		S367,320,359.5,320s-13.5-1.1-18.8-3.4s-9.5-5.5-12.5-9.8s-4.6-9.5-4.8-15.7H340c0.2,3.2,1.2,5.9,3,8.1s4,3.8,6.9,4.8
		c2.8,1.1,6,1.6,9.5,1.6s6.9-0.5,9.7-1.7c2.8-1.1,5-2.6,6.5-4.6c1.6-2,2.4-4.3,2.4-7c0-2.4-0.7-4.4-2.1-6s-3.3-2.9-5.8-4
		s-5.4-2-8.8-2.9l-10.6-2.7c-7.7-2-13.7-5-18.2-9c-4.4-4-6.7-9.4-6.7-16c0-5.5,1.5-10.3,4.5-14.4c3-4.1,7-7.3,12.2-9.6
		c5.1-2.3,11-3.4,17.5-3.4s12.4,1.1,17.4,3.4c5,2.3,8.9,5.4,11.8,9.5s4.3,8.7,4.4,13.9L377.4,251.1L377.4,251.1z"/>
	<path d="M444,248.8v12.7h-40.1v-12.7H444L444,248.8z M413.8,232.1h16.5v65.6c0,2.2,0.3,3.9,1,5.1s1.6,2,2.7,2.4s2.4,0.6,3.7,0.6
		c1,0,2-0.1,2.8-0.2c0.9-0.1,1.5-0.3,2-0.4l2.8,12.9c-0.9,0.3-2.1,0.6-3.8,1s-3.6,0.6-5.9,0.6c-4.1,0.1-7.8-0.5-11.1-1.9
		c-3.3-1.4-5.9-3.5-7.8-6.4s-2.9-6.5-2.8-10.9v-68.4H413.8z"/>
	<path d="M477.9,320c-4.4,0-8.4-0.8-11.9-2.4s-6.3-4-8.4-7.1c-2-3.1-3.1-7-3.1-11.5c0-3.9,0.7-7.2,2.2-9.8c1.5-2.6,3.4-4.6,6-6.2
		c2.5-1.5,5.4-2.7,8.5-3.5c3.2-0.8,6.5-1.4,9.8-1.8c4.1-0.4,7.4-0.8,10-1.2c2.5-0.4,4.4-0.9,5.6-1.6s1.8-1.9,1.8-3.5v-0.3
		c0-3.4-1-6.1-3-8s-5-2.8-8.8-2.8c-4,0-7.2,0.9-9.6,2.6s-3.9,3.8-4.8,6.2l-15.4-2.2c1.2-4.2,3.2-7.8,6-10.7c2.8-2.9,6.2-5,10.2-6.4
		s8.5-2.2,13.4-2.2c3.4,0,6.7,0.4,10,1.2s6.4,2.1,9.1,3.9c2.8,1.8,5,4.2,6.7,7.3c1.7,3.1,2.5,7,2.5,11.6v46.7h-15.8v-9.6h-0.5
		c-1,1.9-2.4,3.8-4.2,5.4s-4.1,3-6.8,4C484.7,319.6,481.5,320.1,477.9,320L477.9,320z M482.1,308c3.3,0,6.2-0.7,8.6-2
		s4.3-3.1,5.6-5.2s2-4.6,2-7.1v-8.2c-0.5,0.4-1.4,0.8-2.6,1.2c-1.2,0.4-2.6,0.7-4.1,1s-3,0.5-4.5,0.7s-2.8,0.4-3.9,0.5
		c-2.5,0.3-4.6,0.9-6.6,1.6s-3.5,1.8-4.6,3.2s-1.7,3.1-1.7,5.2c0,3,1.1,5.3,3.3,6.9S478.7,308,482.1,308L482.1,308z"/>
	<path d="M561.7,346.3c-5.9,0-11-0.8-15.2-2.4s-7.7-3.7-10.2-6.4s-4.4-5.6-5.4-8.9l14.8-3.6c0.7,1.4,1.6,2.7,2.9,4.1
		c1.3,1.4,3,2.5,5.2,3.4s4.9,1.3,8.2,1.3c4.7,0,8.5-1.1,11.6-3.4s4.6-6,4.6-11.1v-13.2h-0.8c-0.8,1.7-2.1,3.4-3.7,5.2
		s-3.8,3.3-6.4,4.5c-2.7,1.2-6,1.8-10,1.8c-5.4,0-10.2-1.3-14.6-3.8c-4.3-2.5-7.8-6.3-10.4-11.4c-2.6-5-3.8-11.4-3.8-19
		s1.3-14.1,3.8-19.4c2.6-5.3,6-9.3,10.4-12.1c4.4-2.7,9.2-4.1,14.6-4.1c4.1,0,7.5,0.7,10.1,2.1c2.7,1.4,4.8,3,6.3,4.9
		c1.6,1.9,2.8,3.7,3.6,5.4h0.9v-11.6h16.2v71c0,6-1.4,10.9-4.3,14.8c-2.8,3.9-6.7,6.8-11.7,8.8S567.9,346.3,561.7,346.3L561.7,346.3
		z M561.8,304.7c3.5,0,6.5-0.9,8.9-2.5c2.5-1.7,4.3-4.1,5.6-7.3s1.9-7,1.9-11.5s-0.6-8.2-1.9-11.5c-1.3-3.3-3.1-5.9-5.5-7.7
		s-5.4-2.8-9-2.8s-6.7,1-9.2,2.9s-4.3,4.5-5.5,7.8s-1.9,7.1-1.9,11.3s0.6,8,1.9,11.2c1.3,3.2,3.1,5.7,5.6,7.5
		S558.2,304.7,561.8,304.7L561.8,304.7z"/>
	<path d="M642.3,320c-7,0-13-1.5-18.1-4.4s-9-7.1-11.7-12.5s-4.1-11.7-4.1-19s1.4-13.5,4.1-18.9s6.6-9.7,11.5-12.7
		s10.7-4.6,17.4-4.6c4.3,0,8.4,0.7,12.2,2.1s7.2,3.5,10.2,6.4c3,2.9,5.3,6.5,7,11c1.7,4.4,2.5,9.7,2.5,15.8v5h-57.2v-11.1h41.5
		c0-3.1-0.7-6-2-8.4c-1.3-2.5-3.2-4.4-5.6-5.8c-2.4-1.4-5.1-2.1-8.3-2.1c-3.4,0-6.3,0.8-8.9,2.4s-4.5,3.7-5.9,6.4s-2.1,5.5-2.2,8.6
		v9.7c0,4.1,0.7,7.5,2.2,10.4s3.6,5.1,6.2,6.6c2.7,1.5,5.8,2.3,9.4,2.3c2.4,0,4.6-0.3,6.5-1s3.6-1.7,5-3s2.5-3,3.2-5l15.4,1.7
		c-1,4.1-2.8,7.6-5.5,10.6s-6.2,5.4-10.4,7C652.5,319.2,647.7,320,642.3,320L642.3,320z"/>
</g>
</svg>
