<?xml version="1.0" encoding="utf-8"?>
<!-- Generator: $$$/GeneralStr/196=Adobe Illustrator 27.6.0, SVG Export Plug-In . SVG Version: 6.00 Build 0)  -->
<svg version="1.1" id="Calque_1" xmlns="http://www.w3.org/2000/svg" xmlns:xlink="http://www.w3.org/1999/xlink" x="0px" y="0px"
	 viewBox="0 0 277.1 128.6" style="enable-background:new 0 0 277.1 128.6;" xml:space="preserve">
<g>
	<path d="M2.5,49.7V0h16.8c3.9,0,7.1,0.7,9.6,2.1s4.3,3.3,5.5,5.7c1.2,2.4,1.8,5,1.8,8s-0.6,5.6-1.8,8s-3,4.3-5.5,5.7
		c-2.5,1.4-5.6,2.1-9.5,2.1h-12v-5.3h11.8c2.7,0,4.8-0.5,6.4-1.4c1.6-0.9,2.8-2.2,3.5-3.7c0.7-1.6,1.1-3.4,1.1-5.3s-0.4-3.8-1.1-5.3
		c-0.7-1.6-1.9-2.8-3.6-3.7c-1.6-0.9-3.8-1.3-6.5-1.3H8.5v44.3H2.5z"/>
	<path d="M50.8,0v49.7h-5.7V0H50.8z"/>
	<path d="M72.3,50.5c-2.4,0-4.5-0.4-6.4-1.3c-1.9-0.9-3.5-2.2-4.6-3.9c-1.1-1.7-1.7-3.8-1.7-6.2c0-2.1,0.4-3.9,1.3-5.2
		s2-2.4,3.4-3.1c1.4-0.8,3-1.3,4.7-1.7c1.7-0.4,3.4-0.7,5.2-0.9c2.3-0.3,4.1-0.5,5.5-0.7c1.4-0.2,2.4-0.4,3.1-0.8c0.7-0.4,1-1,1-1.9
		v-0.2c0-2.4-0.7-4.3-2-5.6c-1.3-1.3-3.3-2-5.9-2c-2.7,0-4.9,0.6-6.4,1.8c-1.6,1.2-2.6,2.5-3.3,3.8l-5.4-1.9c1-2.3,2.3-4,3.9-5.3
		c1.6-1.3,3.4-2.2,5.3-2.7c1.9-0.5,3.8-0.8,5.7-0.8c1.2,0,2.6,0.1,4.1,0.4c1.6,0.3,3.1,0.9,4.5,1.7c1.5,0.9,2.7,2.2,3.7,4
		c1,1.8,1.5,4.1,1.5,7.1v24.5h-5.7v-5h-0.3c-0.4,0.8-1,1.7-1.9,2.6c-0.9,0.9-2.1,1.7-3.6,2.4C76.3,50.2,74.4,50.5,72.3,50.5z
		 M73.2,45.4c2.3,0,4.2-0.4,5.7-1.3c1.6-0.9,2.7-2,3.5-3.4s1.2-2.9,1.2-4.4v-5.2c-0.2,0.3-0.8,0.6-1.6,0.8c-0.8,0.2-1.8,0.4-2.8,0.6
		c-1.1,0.2-2.1,0.3-3.1,0.4c-1,0.1-1.8,0.2-2.4,0.3c-1.5,0.2-2.9,0.5-4.2,0.9c-1.3,0.4-2.3,1.1-3.1,1.9c-0.8,0.8-1.2,2-1.2,3.5
		c0,2,0.7,3.5,2.2,4.5C69,44.9,70.9,45.4,73.2,45.4z"/>
	<path d="M105.6,27.3v22.4h-5.7V12.4h5.5v5.8h0.5c0.9-1.9,2.2-3.4,4-4.6c1.8-1.2,4.1-1.7,6.9-1.7c2.5,0,4.7,0.5,6.6,1.5
		c1.9,1,3.4,2.6,4.4,4.7c1.1,2.1,1.6,4.7,1.6,7.9v23.7h-5.7V26.4c0-2.9-0.8-5.2-2.3-6.9c-1.5-1.6-3.6-2.5-6.3-2.5
		c-1.8,0-3.5,0.4-4.9,1.2c-1.4,0.8-2.6,1.9-3.4,3.5C106,23.3,105.6,25.1,105.6,27.3z"/>
	<path d="M155.4,50.4c-3.6,0-6.7-0.8-9.3-2.4s-4.6-3.8-6-6.7c-1.4-2.9-2.1-6.2-2.1-10c0-3.8,0.7-7.2,2.1-10.1
		c1.4-2.9,3.4-5.2,5.9-6.8c2.5-1.6,5.5-2.5,8.8-2.5c1.9,0,3.9,0.3,5.7,1c1.9,0.6,3.6,1.7,5.2,3.1c1.6,1.4,2.8,3.4,3.7,5.7
		c0.9,2.4,1.4,5.3,1.4,8.8V33h-28.7V28H165c0-2.1-0.4-4-1.2-5.6c-0.8-1.6-2-3-3.5-3.9c-1.5-1-3.3-1.4-5.4-1.4
		c-2.3,0-4.2,0.6-5.9,1.7c-1.7,1.1-2.9,2.6-3.8,4.4c-0.9,1.8-1.3,3.7-1.3,5.8v3.3c0,2.8,0.5,5.2,1.5,7.1c1,1.9,2.3,3.4,4.1,4.4
		c1.7,1,3.8,1.5,6.1,1.5c1.5,0,2.9-0.2,4.1-0.6c1.2-0.4,2.3-1.1,3.2-1.9c0.9-0.9,1.6-1.9,2.1-3.2l5.5,1.6c-0.6,1.9-1.6,3.5-2.9,4.9
		c-1.4,1.4-3.1,2.5-5.1,3.3C160.2,50.1,157.9,50.4,155.4,50.4z"/>
	<path d="M195.8,12.4v4.9h-19.3v-4.9H195.8z M182.1,3.5h5.7V39c0,1.6,0.2,2.8,0.7,3.6c0.5,0.8,1.1,1.3,1.8,1.6
		c0.8,0.3,1.5,0.4,2.4,0.4c0.6,0,1.1,0,1.6-0.1c0.4-0.1,0.7-0.1,1-0.2l1.2,5.1c-0.4,0.1-0.9,0.3-1.6,0.4c-0.7,0.2-1.6,0.2-2.6,0.2
		c-1.6,0-3.2-0.3-4.7-1c-1.5-0.7-2.8-1.8-3.8-3.2c-1-1.4-1.5-3.2-1.5-5.4V3.5z"/>
	<path d="M16.9,111.9c-3.4,0-6.3-0.8-8.8-2.4s-4.5-3.8-5.9-6.7C0.7,99.9,0,96.6,0,92.7c0-3.9,0.7-7.3,2.1-10.2
		c1.4-2.9,3.4-5.1,5.9-6.7s5.5-2.4,8.8-2.4c3.4,0,6.3,0.8,8.8,2.4s4.5,3.8,5.9,6.7c1.4,2.9,2.1,6.3,2.1,10.2c0,3.8-0.7,7.2-2.1,10.1
		c-1.4,2.9-3.4,5.1-5.9,6.7S20.2,111.9,16.9,111.9z M16.9,106.8c2.6,0,4.7-0.7,6.3-2s2.9-3,3.7-5.2c0.8-2.1,1.2-4.4,1.2-6.9
		c0-2.5-0.4-4.8-1.2-7c-0.8-2.2-2-3.9-3.7-5.2c-1.6-1.3-3.8-2-6.3-2c-2.6,0-4.7,0.7-6.3,2c-1.6,1.3-2.9,3.1-3.7,5.2
		c-0.8,2.2-1.2,4.5-1.2,7c0,2.5,0.4,4.8,1.2,6.9s2,3.9,3.7,5.2S14.3,106.8,16.9,106.8z"/>
	<path d="M48.2,88.7v22.4h-5.7V73.9H48v5.8h0.5c0.9-1.9,2.2-3.4,4-4.6c1.8-1.2,4.1-1.7,6.9-1.7c2.5,0,4.7,0.5,6.6,1.5
		c1.9,1,3.4,2.6,4.4,4.7c1.1,2.1,1.6,4.7,1.6,7.9v23.7h-5.7V87.9c0-2.9-0.8-5.2-2.3-6.9c-1.5-1.6-3.6-2.5-6.3-2.5
		c-1.8,0-3.5,0.4-4.9,1.2c-1.4,0.8-2.6,1.9-3.4,3.5C48.6,84.7,48.2,86.6,48.2,88.7z"/>
	<path d="M128.1,82.2l-5.1,1.5c-0.3-0.9-0.8-1.7-1.4-2.5c-0.6-0.8-1.5-1.5-2.5-2c-1.1-0.5-2.4-0.8-4.1-0.8c-2.3,0-4.2,0.5-5.7,1.6
		c-1.5,1-2.3,2.4-2.3,4c0,1.4,0.5,2.5,1.6,3.4c1,0.8,2.7,1.5,4.9,2.1l5.5,1.4c3.3,0.8,5.8,2,7.4,3.7c1.6,1.7,2.4,3.8,2.4,6.4
		c0,2.1-0.6,4-1.8,5.7c-1.2,1.7-2.9,3-5.1,4c-2.2,1-4.7,1.5-7.6,1.5c-3.8,0-6.9-0.8-9.4-2.5c-2.5-1.6-4.1-4.1-4.7-7.2l5.4-1.4
		c0.5,2,1.5,3.5,2.9,4.5c1.4,1,3.3,1.5,5.7,1.5c2.7,0,4.8-0.6,6.4-1.7c1.6-1.1,2.4-2.5,2.4-4.1c0-1.3-0.5-2.4-1.4-3.3
		c-0.9-0.9-2.3-1.5-4.2-2l-6.2-1.5c-3.4-0.8-5.9-2.1-7.5-3.8c-1.6-1.7-2.4-3.8-2.4-6.4c0-2.1,0.6-4,1.8-5.6c1.2-1.6,2.8-2.9,4.9-3.8
		c2.1-0.9,4.4-1.4,7-1.4c3.7,0,6.6,0.8,8.7,2.4C125.7,77.4,127.2,79.6,128.1,82.2z"/>
	<path d="M153.6,73.9v4.9h-19.3v-4.9H153.6z M139.9,65h5.7v35.5c0,1.6,0.2,2.8,0.7,3.6s1.1,1.3,1.8,1.6c0.8,0.3,1.5,0.4,2.4,0.4
		c0.6,0,1.1,0,1.6-0.1c0.4-0.1,0.7-0.1,1-0.2l1.2,5.1c-0.4,0.1-0.9,0.3-1.6,0.4c-0.7,0.2-1.6,0.2-2.6,0.2c-1.6,0-3.2-0.3-4.7-1
		c-1.5-0.7-2.8-1.8-3.8-3.2c-1-1.4-1.5-3.2-1.5-5.4V65z"/>
	<path d="M173.2,112c-2.4,0-4.5-0.4-6.4-1.3c-1.9-0.9-3.5-2.2-4.6-3.9c-1.1-1.7-1.7-3.8-1.7-6.2c0-2.1,0.4-3.9,1.3-5.2
		c0.8-1.3,2-2.4,3.4-3.1c1.4-0.8,3-1.3,4.7-1.7c1.7-0.4,3.4-0.7,5.2-0.9c2.3-0.3,4.1-0.5,5.5-0.7c1.4-0.2,2.4-0.4,3.1-0.8
		c0.7-0.4,1-1,1-1.9V86c0-2.4-0.7-4.3-2-5.6c-1.3-1.3-3.3-2-5.9-2c-2.7,0-4.9,0.6-6.4,1.8c-1.6,1.2-2.6,2.5-3.3,3.8l-5.4-1.9
		c1-2.3,2.3-4,3.9-5.3c1.6-1.3,3.4-2.2,5.3-2.7c1.9-0.5,3.8-0.8,5.7-0.8c1.2,0,2.6,0.1,4.1,0.4c1.6,0.3,3.1,0.9,4.5,1.7
		c1.5,0.9,2.7,2.2,3.7,4c1,1.8,1.5,4.1,1.5,7.1v24.5h-5.7v-5h-0.3c-0.4,0.8-1,1.7-1.9,2.6c-0.9,0.9-2.1,1.7-3.6,2.4
		C177.2,111.7,175.3,112,173.2,112z M174,106.9c2.3,0,4.2-0.4,5.7-1.3c1.6-0.9,2.7-2,3.5-3.4c0.8-1.4,1.2-2.9,1.2-4.4v-5.2
		c-0.2,0.3-0.8,0.6-1.6,0.8c-0.8,0.2-1.8,0.4-2.8,0.6c-1.1,0.2-2.1,0.3-3.1,0.4s-1.8,0.2-2.4,0.3c-1.5,0.2-2.9,0.5-4.2,0.9
		c-1.3,0.4-2.3,1.1-3.1,1.9c-0.8,0.8-1.2,2-1.2,3.5c0,2,0.7,3.5,2.2,4.5C169.9,106.4,171.8,106.9,174,106.9z"/>
	<path d="M215.8,125.9c-2.8,0-5.1-0.4-7.1-1.1c-2-0.7-3.6-1.6-5-2.8s-2.4-2.4-3.1-3.7l4.6-3.2c0.5,0.7,1.2,1.5,2,2.3
		c0.8,0.9,1.9,1.6,3.3,2.3c1.4,0.7,3.2,1,5.4,1c3,0,5.5-0.7,7.4-2.2c2-1.5,2.9-3.7,2.9-6.8v-7.6h-0.5c-0.4,0.7-1,1.5-1.8,2.5
		c-0.8,1-1.9,1.9-3.3,2.6c-1.4,0.8-3.4,1.2-5.8,1.2c-3,0-5.7-0.7-8.1-2.1c-2.4-1.4-4.3-3.5-5.7-6.2c-1.4-2.7-2.1-6-2.1-9.9
		c0-3.8,0.7-7.1,2-10c1.3-2.8,3.2-5,5.6-6.6c2.4-1.6,5.2-2.3,8.3-2.3c2.4,0,4.4,0.4,5.8,1.2c1.4,0.8,2.5,1.7,3.3,2.7
		c0.8,1,1.4,1.8,1.8,2.5h0.6v-5.9h5.5v38.3c0,3.2-0.7,5.8-2.2,7.8c-1.4,2-3.4,3.5-5.8,4.4C221.4,125.4,218.7,125.9,215.8,125.9z
		 M215.6,105.4c2.3,0,4.2-0.5,5.8-1.6s2.8-2.6,3.6-4.5c0.8-2,1.2-4.3,1.2-7.1c0-2.7-0.4-5.1-1.2-7.1c-0.8-2.1-2-3.7-3.6-4.8
		c-1.6-1.2-3.5-1.7-5.9-1.7c-2.4,0-4.4,0.6-6.1,1.8c-1.6,1.2-2.8,2.9-3.6,4.9c-0.8,2.1-1.2,4.4-1.2,6.9c0,2.6,0.4,4.9,1.2,6.9
		c0.8,2,2,3.5,3.6,4.7C211.2,104.9,213.2,105.4,215.6,105.4z"/>
	<path d="M258,111.9c-3.6,0-6.7-0.8-9.3-2.4c-2.6-1.6-4.6-3.8-6-6.7c-1.4-2.9-2.1-6.2-2.1-10c0-3.8,0.7-7.2,2.1-10.1
		c1.4-2.9,3.4-5.2,5.9-6.8c2.5-1.6,5.5-2.5,8.8-2.5c1.9,0,3.9,0.3,5.7,1c1.9,0.6,3.6,1.7,5.2,3.1c1.6,1.4,2.8,3.4,3.7,5.7
		c0.9,2.4,1.4,5.3,1.4,8.8v2.4h-28.7v-4.9h22.9c0-2.1-0.4-4-1.2-5.6c-0.8-1.6-2-3-3.5-3.9c-1.5-1-3.3-1.4-5.4-1.4
		c-2.3,0-4.2,0.6-5.9,1.7c-1.7,1.1-2.9,2.6-3.8,4.4c-0.9,1.8-1.3,3.7-1.3,5.8v3.3c0,2.8,0.5,5.2,1.5,7.1c1,1.9,2.3,3.4,4.1,4.4
		c1.7,1,3.8,1.5,6.1,1.5c1.5,0,2.9-0.2,4.1-0.6c1.2-0.4,2.3-1.1,3.2-1.9c0.9-0.9,1.6-1.9,2.1-3.2l5.5,1.6c-0.6,1.9-1.6,3.5-2.9,4.9
		c-1.4,1.4-3.1,2.5-5.1,3.3C262.8,111.5,260.5,111.9,258,111.9z"/>
</g>
</svg>
